<?xml version="1.0" encoding="UTF-8"?>
<svg id="Calque_2" data-name="Calque 2" xmlns="http://www.w3.org/2000/svg" viewBox="0 0 200 148">
  <defs>
    <style>
      .cls-1 {
        fill: #2a7148;
      }

      .cls-2 {
        fill: #2c9f4c;
      }

      .cls-3 {
        fill: #c5f57d;
      }

      .cls-4 {
        fill: #142427;
      }

      .cls-5 {
        fill: #dae1e5;
      }

      .cls-6 {
        fill: #1c3030;
      }

      .cls-7 {
        fill: #224635;
      }

      .cls-8 {
        fill: #68d150;
      }
    </style>
  </defs>
  <g id="Layer_1" data-name="Layer 1" shape-rendering="crispEdges">
    <g>
      <rect class="cls-1" x="72" y="8" width="40" height="28"/>
      <polygon class="cls-3" points="112 36 104 36 96 36 88 36 80 36 80 44 80 52 88 52 88 44 96 44 104 44 112 44 120 44 120 36 112 36"/>
      <g>
        <polygon class="cls-6" points="104 28 96 28 88 28 80 28 80 36 88 36 96 36 104 36 112 36 112 28 104 28"/>
        <polygon class="cls-6" points="72 44 72 52 72 60 72 68 72 76 72 84 72 92 72 100 80 100 80 92 80 84 80 76 80 68 80 60 80 52 80 44 80 36 72 36 72 44"/>
      </g>
      <g>
        <rect class="cls-8" x="8" y="8" width="8" height="8"/>
        <polygon class="cls-8" points="24 8 24 16 32 16 40 16 40 8 32 8 24 8"/>
        <rect class="cls-8" x="120" y="36" width="8" height="8"/>
        <polygon class="cls-8" points="160 36 152 36 144 36 144 44 152 44 160 44 168 44 168 36 160 36"/>
        <rect class="cls-8" x="8" y="24" width="8" height="8"/>
        <rect class="cls-8" x="88" y="44" width="8" height="8"/>
        <rect class="cls-8" x="104" y="44" width="8" height="8"/>
        <polygon class="cls-8" points="88 52 80 52 80 60 80 68 80 76 80 84 80 92 80 100 88 100 88 92 88 84 88 76 88 68 96 68 96 60 88 60 88 52"/>
        <rect class="cls-8" x="96" y="52" width="8" height="8"/>
      </g>
      <g>
        <polygon class="cls-5" points="56 24 56 32 56 40 56 48 64 48 64 40 64 32 64 24 64 16 56 16 56 24"/>
        <polygon class="cls-5" points="136 44 128 44 128 52 136 52 144 52 144 44 136 44"/>
        <rect class="cls-5" x="120" y="52" width="8" height="8"/>
        <polygon class="cls-5" points="144 52 144 60 144 68 152 68 152 60 152 52 144 52"/>
        <rect class="cls-5" x="136" y="68" width="8" height="8"/>
        <rect class="cls-5" x="56" y="56" width="8" height="8"/>
        <rect class="cls-5" x="128" y="76" width="8" height="8"/>
        <rect class="cls-5" x="128" y="92" width="8" height="8"/>
      </g>
      <g>
        <rect class="cls-7" x="64" y="64" width="8" height="8"/>
        <rect class="cls-7" x="56" y="72" width="8" height="8"/>
        <rect class="cls-7" x="48" y="80" width="8" height="8"/>
        <rect class="cls-7" x="64" y="80" width="8" height="8"/>
        <rect class="cls-7" x="56" y="88" width="8" height="8"/>
      </g>
      <g>
        <rect class="cls-2" x="16" y="8" width="8" height="8"/>
        <rect class="cls-2" x="40" y="8" width="8" height="8"/>
        <rect class="cls-2" x="8" y="16" width="8" height="8"/>
        <polygon class="cls-2" points="24 16 24 24 32 24 40 24 40 16 32 16 24 16"/>
        <polygon class="cls-2" points="144 44 144 36 136 36 128 36 128 44 136 44 144 44"/>
        <path class="cls-2" d="M176,36h-8v8h-24v8h8v16h-8v8h-8v8h-8v-8h8v-8h8v-16h-16v8h-8v-8h8v-8h-16v8h-8v8h-8v8h-8v32h-8v8h16v-8h8v8h8v8h8v8h8v-8h8v-8h8v-8h24v-8h8v-8h8v-48h-8ZM136,100h-8v-8h8v8Z"/>
        <rect class="cls-2" x="16" y="24" width="8" height="8"/>
        <rect class="cls-2" x="96" y="44" width="8" height="8"/>
        <rect class="cls-2" x="8" y="32" width="8" height="8"/>
        <rect class="cls-2" x="32" y="32" width="8" height="8"/>
        <rect class="cls-2" x="88" y="52" width="8" height="8"/>
        <rect class="cls-2" x="24" y="40" width="8" height="8"/>
        <rect class="cls-2" x="8" y="48" width="8" height="8"/>
        <rect class="cls-2" x="176" y="92" width="8" height="8"/>
        <rect class="cls-2" x="144" y="108" width="8" height="8"/>
        <rect class="cls-2" x="136" y="116" width="8" height="8"/>
        <rect class="cls-2" x="128" y="124" width="8" height="8"/>
      </g>
      <g>
        <rect class="cls-1" x="16" y="16" width="8" height="8"/>
        <path class="cls-1" d="M64,24v24h-8v-32h16v-8h-24v8h-8v8h-16v8h-8v8h-8v8h8v8h-8v16h32v8h16v-8h8v-8h-8v-8h8v8h8V16h-8v8ZM24,40h8v-8h8v8h-8v8h-8v-8Z"/>
        <polygon class="cls-1" points="184 36 184 44 184 52 184 60 184 68 184 76 184 84 176 84 176 92 184 92 184 100 176 100 176 92 168 92 168 100 160 100 152 100 144 100 144 108 152 108 152 116 160 116 160 108 168 108 176 108 184 108 192 108 192 100 192 92 192 84 192 76 192 68 192 60 192 52 192 44 192 36 184 36"/>
        <rect class="cls-1" x="64" y="72" width="8" height="8"/>
        <rect class="cls-1" x="56" y="80" width="8" height="8"/>
        <rect class="cls-1" x="96" y="100" width="8" height="8"/>
        <rect class="cls-1" x="104" y="108" width="8" height="8"/>
        <rect class="cls-1" x="136" y="108" width="8" height="8"/>
        <rect class="cls-1" x="112" y="116" width="8" height="8"/>
        <rect class="cls-1" x="128" y="116" width="8" height="8"/>
        <rect class="cls-1" x="144" y="116" width="8" height="8"/>
        <rect class="cls-1" x="120" y="124" width="8" height="8"/>
        <rect class="cls-1" x="136" y="124" width="8" height="8"/>
        <rect class="cls-1" x="128" y="124" width="8" height="16"/>
      </g>
      <g>
        <polygon class="cls-4" points="24 8 32 8 40 8 48 8 56 8 64 8 72 8 80 8 88 8 96 8 104 8 112 8 112 0 104 0 96 0 88 0 80 0 72 0 64 0 56 0 48 0 40 0 32 0 24 0 16 0 8 0 8 8 16 8 24 8"/>
        <polygon class="cls-4" points="120 36 128 36 136 36 144 36 152 36 160 36 168 36 176 36 184 36 192 36 192 28 184 28 176 28 168 28 160 28 152 28 144 28 136 28 128 28 120 28 112 28 112 36 120 36"/>
        <polygon class="cls-4" points="192 36 192 44 192 52 192 60 192 68 192 76 192 84 192 92 192 100 192 108 200 108 200 100 200 92 200 84 200 76 200 68 200 60 200 52 200 44 200 36 192 36"/>
        <polygon class="cls-4" points="112 8 112 10.22 112 12.44 112 14.67 112 16.89 112 19.11 112 21.33 112 23.56 112 25.78 112 28 120 28 120 25.78 120 23.56 120 21.33 120 19.11 120 16.89 120 14.67 120 12.44 120 10.22 120 8 112 8"/>
        <polygon class="cls-4" points="8 56 8 48 8 40 8 32 8 24 8 16 8 8 0 8 0 16 0 24 0 32 0 40 0 48 0 56 0 64 0 72 8 72 8 64 8 56"/>
        <polygon class="cls-4" points="32 72 24 72 16 72 8 72 8 80 16 80 24 80 32 80 40 80 40 72 32 72"/>
        <rect class="cls-4" x="40" y="80" width="8" height="8"/>
        <rect class="cls-4" x="72" y="100" width="8" height="8"/>
        <rect class="cls-4" x="48" y="88" width="8" height="8"/>
        <rect class="cls-4" x="64" y="88" width="8" height="8"/>
        <polygon class="cls-4" points="96 108 88 108 80 108 80 116 88 116 96 116 104 116 104 108 96 108"/>
        <polygon class="cls-4" points="176 108 168 108 160 108 160 116 168 116 176 116 184 116 192 116 192 108 184 108 176 108"/>
        <rect class="cls-4" x="56" y="96" width="8" height="8"/>
        <rect class="cls-4" x="104" y="116" width="8" height="8"/>
        <rect class="cls-4" x="152" y="116" width="8" height="8"/>
        <rect class="cls-4" x="112" y="124" width="8" height="8"/>
        <rect class="cls-4" x="144" y="124" width="8" height="8"/>
        <rect class="cls-4" x="120" y="132" width="8" height="8"/>
        <rect class="cls-4" x="136" y="132" width="8" height="8"/>
        <rect class="cls-4" x="128" y="140" width="8" height="8"/>
      </g>
    </g>
  </g>
</svg>