<?xml version="1.0" encoding="UTF-8"?>
<svg id="Calque_2" data-name="Calque 2" xmlns="http://www.w3.org/2000/svg" viewBox="0 0 200 183.33">
  <defs>
    <style>
      .cls-1 {
        fill: #ca9570;
      }

      .cls-2 {
        fill: #88554c;
      }

      .cls-3 {
        fill: #a66760;
      }

      .cls-4 {
        fill: #e4bb8a;
      }

      .cls-5 {
        fill: #663c4a;
      }

      .cls-6 {
        fill: #8e484b;
      }

      .cls-7 {
        fill: #9e6652;
      }

      .cls-8 {
        fill: #da8f5f;
      }

      .cls-9 {
        fill: #9c5852;
      }

      .cls-10 {
        fill: #643544;
      }

      .cls-11 {
        fill: #c18760;
      }

      .cls-12 {
        fill: #fbe1be;
      }

      .cls-13 {
        fill: #94604d;
      }

      .cls-14 {
        fill: #733843;
      }

      .cls-15 {
        fill: #261b23;
      }

      .cls-16 {
        fill: #7e484d;
      }

      .cls-17 {
        fill: #fbc361;
      }

      .cls-18 {
        fill: #724248;
      }

      .cls-19 {
        fill: #ba6953;
      }

      .cls-20 {
        isolation: isolate;
        opacity: .73;
      }

      .cls-20, .cls-21 {
        fill: #eece98;
      }

      .cls-22 {
        fill: #382636;
      }

      .cls-23 {
        fill: #482e3a;
      }

      .cls-24 {
        fill: #814045;
      }

      .cls-25 {
        fill: #3c2c3d;
      }

      .cls-26 {
        fill: #d39f76;
      }

      .cls-27 {
        fill: #c48f66;
      }

      .cls-28 {
        fill: #d9a97d;
      }

      .cls-29 {
        fill: #f3d6a4;
      }

      .cls-30 {
        fill: #c37957;
      }

      .cls-31 {
        fill: #3c3442;
      }

      .cls-32 {
        fill: #b9815d;
      }

      .cls-33 {
        fill: #2a2431;
      }

      .cls-34 {
        fill: #b0735f;
      }

      .cls-35 {
        fill: #ab7453;
      }

      .cls-36 {
        fill: #b0615c;
      }
    </style>
  </defs>
  <g id="Layer_1" data-name="Layer 1" shape-rendering="crispEdges">
    <g>
      <rect class="cls-30" x="183.33" y="12.5" width="4.17" height="4.17"/>
      <g>
        <rect class="cls-34" x="87.5" y="37.5" width="4.17" height="4.17"/>
        <rect class="cls-34" x="62.5" y="79.17" width="4.17" height="4.17"/>
        <rect class="cls-34" x="154.17" y="79.17" width="4.17" height="4.17"/>
        <rect class="cls-34" x="37.5" y="83.33" width="4.17" height="4.17"/>
      </g>
      <g>
        <rect class="cls-1" x="75" y="37.5" width="8.33" height="4.17"/>
        <rect class="cls-1" x="133.33" y="37.5" width="8.33" height="4.17"/>
        <rect class="cls-1" x="137.5" y="50" width="4.17" height="4.17"/>
        <rect class="cls-1" x="54.17" y="83.33" width="4.17" height="4.17"/>
        <rect class="cls-1" x="150" y="100" width="4.17" height="4.17"/>
        <rect class="cls-1" x="37.5" y="120.83" width="4.17" height="4.17"/>
      </g>
      <g>
        <rect class="cls-3" x="58.33" y="75" width="4.17" height="4.17"/>
        <rect class="cls-3" x="87.5" y="141.67" width="4.17" height="4.17"/>
      </g>
      <g>
        <rect class="cls-11" x="170.83" y="4.17" width="4.17" height="4.17"/>
        <rect class="cls-11" x="120.83" y="37.5" width="8.33" height="4.17"/>
        <rect class="cls-11" x="154.17" y="120.83" width="4.17" height="4.17"/>
        <rect class="cls-11" x="45.83" y="137.5" width="4.17" height="4.17"/>
        <rect class="cls-11" x="83.33" y="137.5" width="4.17" height="4.17"/>
        <rect class="cls-11" x="125" y="145.83" width="4.17" height="4.17"/>
      </g>
      <g>
        <rect class="cls-33" x="170.83" y="33.33" width="4.17" height="4.17"/>
        <rect class="cls-33" x="170.83" y="145.83" width="4.17" height="4.17"/>
      </g>
      <rect class="cls-20" x="4.17" y="154.17" width="4.17" height="4.17"/>
      <g>
        <rect class="cls-8" x="12.5" y="8.33" width="4.17" height="4.17"/>
        <rect class="cls-8" x="12.5" y="158.33" width="4.17" height="4.17"/>
      </g>
      <g>
        <rect class="cls-17" x="8.33" y="8.33" width="4.17" height="4.17"/>
        <rect class="cls-17" x="183.33" y="8.33" width="4.17" height="4.17"/>
        <rect class="cls-17" x="8.33" y="158.33" width="4.17" height="4.17"/>
        <rect class="cls-17" x="183.33" y="158.33" width="4.17" height="4.17"/>
      </g>
      <g>
        <rect class="cls-36" x="187.5" y="8.33" width="4.17" height="4.17"/>
        <rect class="cls-36" x="187.5" y="158.33" width="4.17" height="4.17"/>
      </g>
      <g>
        <rect class="cls-9" x="4.17" y="12.5" width="12.5" height="4.17"/>
        <rect class="cls-9" x="104.17" y="20.83" width="4.17" height="4.17"/>
        <rect class="cls-9" x="158.33" y="95.83" width="4.17" height="4.17"/>
        <rect class="cls-9" x="16.67" y="158.33" width="4.17" height="4.17"/>
        <rect class="cls-9" x="4.17" y="162.5" width="12.5" height="4.17"/>
      </g>
      <g>
        <rect class="cls-29" x="54.17" y="4.17" width="12.5" height="4.17"/>
        <rect class="cls-29" x="116.67" y="4.17" width="12.5" height="4.17"/>
        <rect class="cls-29" x="137.5" y="4.17" width="4.17" height="4.17"/>
        <rect class="cls-29" x="25" y="8.33" width="4.17" height="8.33"/>
        <rect class="cls-29" x="50" y="12.5" width="12.5" height="4.17"/>
        <rect class="cls-29" x="108.33" y="12.5" width="4.17" height="4.17"/>
        <rect class="cls-29" x="154.17" y="12.5" width="4.17" height="4.17"/>
        <path class="cls-29" d="M150,54.17h-8.33v4.17h-4.17v-4.17h-4.17v-12.5h-29.17v4.17h-16.67v4.17h-4.17v-4.17h-8.33v4.17h-16.67v4.17h-4.17v4.17h4.17v4.17h-4.17v8.33h-4.17v4.17h12.5v4.17h4.17v4.17h4.17v12.5h8.33v-4.17h4.17v8.33h4.17v4.17h4.17v4.17h4.17v4.17h8.33v8.33h25v-16.67h4.17v4.17h4.17v4.17h4.17v-12.5h8.33v-8.33h4.17v-8.33h-4.17v-4.17h4.17v-20.83h-4.17v-4.17ZM66.67,58.33h-4.17v-4.17h4.17v4.17Z"/>
        <rect class="cls-29" x="45.83" y="66.67" width="4.17" height="4.17"/>
        <rect class="cls-29" x="41.67" y="95.83" width="4.17" height="4.17"/>
        <rect class="cls-29" x="91.67" y="133.33" width="4.17" height="4.17"/>
        <rect class="cls-29" x="54.17" y="154.17" width="12.5" height="4.17"/>
        <rect class="cls-29" x="87.5" y="154.17" width="4.17" height="4.17"/>
        <rect class="cls-29" x="116.67" y="154.17" width="12.5" height="4.17"/>
        <rect class="cls-29" x="25" y="162.5" width="4.17" height="4.17"/>
      </g>
      <g>
        <polygon class="cls-12" points="166.67 8.33 166.67 4.17 162.5 4.17 162.5 8.33 137.5 8.33 137.5 4.17 129.17 4.17 129.17 8.33 75 8.33 75 4.17 66.67 4.17 66.67 8.33 50 8.33 50 4.17 45.83 4.17 45.83 8.33 37.5 8.33 37.5 4.17 33.33 4.17 33.33 8.33 29.17 8.33 29.17 16.67 33.33 16.67 33.33 12.5 37.5 12.5 41.67 12.5 41.67 16.67 45.83 16.67 50 16.67 50 12.5 66.67 12.5 75 12.5 100 12.5 100 16.67 108.33 16.67 108.33 12.5 116.67 12.5 116.67 16.67 120.83 16.67 120.83 12.5 129.17 12.5 137.5 12.5 162.5 12.5 166.67 12.5 170.83 12.5 170.83 8.33 166.67 8.33"/>
        <rect class="cls-12" x="41.67" y="50" width="4.17" height="20.83"/>
        <rect class="cls-12" x="62.5" y="54.17" width="4.17" height="4.17"/>
        <rect class="cls-12" x="150" y="79.17" width="4.17" height="4.17"/>
        <polygon class="cls-12" points="41.67 91.67 41.67 95.83 45.83 95.83 45.83 91.67 50 91.67 50 87.5 41.67 87.5 41.67 91.67"/>
        <rect class="cls-12" x="41.67" y="100" width="4.17" height="29.17"/>
        <rect class="cls-12" x="100" y="112.5" width="4.17" height="4.17"/>
        <polygon class="cls-12" points="162.5 158.33 145.83 158.33 145.83 154.17 141.67 154.17 141.67 158.33 137.5 158.33 137.5 154.17 129.17 154.17 129.17 158.33 75 158.33 75 154.17 66.67 154.17 66.67 158.33 50 158.33 50 154.17 45.83 154.17 45.83 158.33 37.5 158.33 37.5 154.17 33.33 154.17 33.33 158.33 29.17 158.33 29.17 166.67 33.33 166.67 33.33 162.5 37.5 162.5 41.67 162.5 41.67 166.67 45.83 166.67 50 166.67 50 162.5 66.67 162.5 75 162.5 100 162.5 100 166.67 108.33 166.67 108.33 162.5 116.67 162.5 116.67 166.67 120.83 166.67 120.83 162.5 129.17 162.5 137.5 162.5 141.67 162.5 145.83 162.5 162.5 162.5 170.83 162.5 170.83 154.17 162.5 154.17 162.5 158.33"/>
      </g>
      <g>
        <rect class="cls-21" x="25" y="4.17" width="8.33" height="4.17"/>
        <rect class="cls-21" x="37.5" y="4.17" width="8.33" height="4.17"/>
        <rect class="cls-21" x="50" y="4.17" width="4.17" height="4.17"/>
        <rect class="cls-21" x="75" y="4.17" width="12.5" height="4.17"/>
        <rect class="cls-21" x="91.67" y="4.17" width="25" height="4.17"/>
        <rect class="cls-21" x="166.67" y="4.17" width="4.17" height="4.17"/>
        <rect class="cls-21" x="33.33" y="12.5" width="8.33" height="4.17"/>
        <rect class="cls-21" x="112.5" y="12.5" width="4.17" height="4.17"/>
        <rect class="cls-21" x="120.83" y="12.5" width="33.33" height="4.17"/>
        <rect class="cls-21" x="162.5" y="12.5" width="4.17" height="4.17"/>
        <rect class="cls-21" x="50" y="16.67" width="12.5" height="4.17"/>
        <polygon class="cls-21" points="66.67 20.83 91.67 20.83 91.67 16.67 100 16.67 100 12.5 62.5 12.5 62.5 16.67 66.67 16.67 66.67 20.83"/>
        <rect class="cls-21" x="70.83" y="45.83" width="4.17" height="4.17"/>
        <rect class="cls-21" x="133.33" y="45.83" width="4.17" height="4.17"/>
        <rect class="cls-21" x="158.33" y="45.83" width="4.17" height="4.17"/>
        <rect class="cls-21" x="150" y="50" width="4.17" height="8.33"/>
        <rect class="cls-21" x="154.17" y="58.33" width="4.17" height="12.5"/>
        <rect class="cls-21" x="37.5" y="62.5" width="4.17" height="4.17"/>
        <rect class="cls-21" x="45.83" y="70.83" width="4.17" height="4.17"/>
        <rect class="cls-21" x="37.5" y="91.67" width="4.17" height="4.17"/>
        <rect class="cls-21" x="141.67" y="100" width="8.33" height="4.17"/>
        <path class="cls-21" d="M54.17,125v-4.17h4.17v4.17h4.17v4.17h8.33v4.17h-4.17v4.17h16.67v-8.33h4.17v8.33h4.17v-4.17h4.17v8.33h12.5v4.17h12.5v-4.17h12.5v-4.17h12.5v-8.33h4.17v-4.17h4.17v-8.33h-4.17v-4.17h-4.17v-4.17h-4.17v4.17h-4.17v-4.17h-4.17v-4.17h-4.17v20.83h-4.17v-4.17h-20.83v-4.17h-4.17v-4.17h-4.17v-4.17h-4.17v-4.17h-4.17v-4.17h-4.17v-8.33h-4.17v4.17h-8.33v-8.33h-4.17v4.17h-4.17v-4.17h-12.5v4.17h-4.17v4.17h4.17v4.17h-4.17v25h8.33ZM133.33,129.17h4.17v4.17h-4.17v-4.17Z"/>
        <polygon class="cls-21" points="33.33 154.17 25 154.17 25 158.33 25 162.5 29.17 162.5 29.17 158.33 33.33 158.33 33.33 154.17"/>
        <rect class="cls-21" x="37.5" y="154.17" width="8.33" height="4.17"/>
        <rect class="cls-21" x="50" y="154.17" width="4.17" height="4.17"/>
        <rect class="cls-21" x="75" y="154.17" width="12.5" height="4.17"/>
        <rect class="cls-21" x="91.67" y="154.17" width="25" height="4.17"/>
        <rect class="cls-21" x="137.5" y="154.17" width="4.17" height="4.17"/>
        <rect class="cls-21" x="145.83" y="154.17" width="16.67" height="4.17"/>
        <rect class="cls-21" x="33.33" y="162.5" width="8.33" height="4.17"/>
        <rect class="cls-21" x="50" y="162.5" width="50" height="4.17"/>
        <rect class="cls-21" x="108.33" y="162.5" width="8.33" height="4.17"/>
        <rect class="cls-21" x="120.83" y="162.5" width="37.5" height="4.17"/>
        <rect class="cls-21" x="162.5" y="162.5" width="8.33" height="4.17"/>
      </g>
      <rect class="cls-19" x="183.33" y="162.5" width="4.17" height="4.17"/>
      <g>
        <rect class="cls-23" x="191.67" y="8.33" width="4.17" height="4.17"/>
        <rect class="cls-23" x="145.83" y="41.67" width="4.17" height="4.17"/>
        <rect class="cls-23" x="166.67" y="145.83" width="4.17" height="4.17"/>
        <rect class="cls-23" x="4.17" y="166.67" width="4.17" height="4.17"/>
      </g>
      <g>
        <rect class="cls-14" x="4.17" y="8.33" width="4.17" height="4.17"/>
        <rect class="cls-14" x="16.67" y="12.5" width="4.17" height="4.17"/>
        <rect class="cls-14" x="4.17" y="158.33" width="4.17" height="4.17"/>
        <rect class="cls-14" x="16.67" y="162.5" width="4.17" height="4.17"/>
        <rect class="cls-14" x="8.33" y="166.67" width="8.33" height="4.17"/>
      </g>
      <g>
        <rect class="cls-27" x="170.83" y="8.33" width="4.17" height="4.17"/>
        <rect class="cls-27" x="25" y="16.67" width="4.17" height="4.17"/>
        <rect class="cls-27" x="58.33" y="83.33" width="4.17" height="4.17"/>
        <rect class="cls-27" x="145.83" y="129.17" width="4.17" height="4.17"/>
        <rect class="cls-27" x="75" y="141.67" width="8.33" height="4.17"/>
        <rect class="cls-27" x="170.83" y="154.17" width="4.17" height="8.33"/>
        <rect class="cls-27" x="25" y="166.67" width="4.17" height="4.17"/>
      </g>
      <g>
        <rect class="cls-4" x="87.5" y="4.17" width="4.17" height="4.17"/>
        <rect class="cls-4" x="145.83" y="4.17" width="16.67" height="4.17"/>
        <polygon class="cls-4" points="158.33 16.67 91.67 16.67 91.67 20.83 158.33 20.83 162.5 20.83 162.5 12.5 158.33 12.5 158.33 16.67"/>
        <rect class="cls-4" x="166.67" y="12.5" width="4.17" height="4.17"/>
        <rect class="cls-4" x="29.17" y="16.67" width="20.83" height="4.17"/>
        <rect class="cls-4" x="62.5" y="16.67" width="4.17" height="4.17"/>
        <polygon class="cls-4" points="83.33 50 87.5 50 87.5 45.83 104.17 45.83 104.17 41.67 87.5 41.67 87.5 37.5 83.33 37.5 83.33 41.67 70.83 41.67 70.83 45.83 83.33 45.83 83.33 50"/>
        <rect class="cls-4" x="129.17" y="37.5" width="4.17" height="4.17"/>
        <polygon class="cls-4" points="66.67 41.67 37.5 41.67 37.5 45.83 33.33 45.83 33.33 50 33.33 54.17 37.5 54.17 37.5 62.5 41.67 62.5 41.67 54.17 41.67 50 45.83 50 45.83 54.17 45.83 66.67 50 66.67 50 70.83 54.17 70.83 54.17 66.67 54.17 62.5 58.33 62.5 58.33 58.33 54.17 58.33 54.17 54.17 58.33 54.17 58.33 50 54.17 50 54.17 45.83 58.33 45.83 58.33 50 70.83 50 70.83 45.83 66.67 45.83 66.67 41.67"/>
        <polygon class="cls-4" points="150 45.83 145.83 45.83 145.83 50 141.67 50 141.67 54.17 150 54.17 150 50 154.17 50 154.17 58.33 158.33 58.33 158.33 50 158.33 45.83 162.5 45.83 162.5 41.67 150 41.67 150 45.83"/>
        <rect class="cls-4" x="137.5" y="54.17" width="4.17" height="4.17"/>
        <rect class="cls-4" x="37.5" y="66.67" width="4.17" height="4.17"/>
        <rect class="cls-4" x="41.67" y="70.83" width="4.17" height="4.17"/>
        <rect class="cls-4" x="154.17" y="70.83" width="4.17" height="8.33"/>
        <rect class="cls-4" x="41.67" y="83.33" width="4.17" height="4.17"/>
        <rect class="cls-4" x="50" y="83.33" width="4.17" height="4.17"/>
        <rect class="cls-4" x="66.67" y="83.33" width="4.17" height="4.17"/>
        <rect class="cls-4" x="37.5" y="87.5" width="4.17" height="4.17"/>
        <rect class="cls-4" x="37.5" y="95.83" width="4.17" height="25"/>
        <polygon class="cls-4" points="141.67 104.17 141.67 108.33 145.83 108.33 145.83 112.5 150 112.5 150 116.67 154.17 116.67 154.17 120.83 158.33 120.83 158.33 100 158.33 95.83 150 95.83 150 100 154.17 100 154.17 104.17 141.67 104.17"/>
        <rect class="cls-4" x="125" y="120.83" width="4.17" height="4.17"/>
        <rect class="cls-4" x="133.33" y="129.17" width="4.17" height="4.17"/>
        <rect class="cls-4" x="83.33" y="133.33" width="4.17" height="4.17"/>
        <polygon class="cls-4" points="75 145.83 75 141.67 83.33 141.67 83.33 137.5 66.67 137.5 66.67 133.33 70.83 133.33 70.83 129.17 62.5 129.17 62.5 125 58.33 125 58.33 120.83 54.17 120.83 54.17 125 45.83 125 45.83 129.17 41.67 129.17 41.67 141.67 45.83 141.67 45.83 137.5 54.17 137.5 54.17 141.67 58.33 141.67 58.33 137.5 62.5 137.5 62.5 141.67 66.67 141.67 66.67 145.83 75 145.83"/>
        <rect class="cls-4" x="91.67" y="141.67" width="8.33" height="4.17"/>
        <rect class="cls-4" x="129.17" y="141.67" width="8.33" height="4.17"/>
        <polygon class="cls-4" points="158.33 166.67 29.17 166.67 29.17 170.83 158.33 170.83 162.5 170.83 162.5 162.5 158.33 162.5 158.33 166.67"/>
      </g>
      <g>
        <rect class="cls-7" x="45.83" y="33.33" width="4.17" height="4.17"/>
        <rect class="cls-7" x="137.5" y="41.67" width="4.17" height="4.17"/>
        <rect class="cls-7" x="33.33" y="58.33" width="4.17" height="4.17"/>
        <rect class="cls-7" x="91.67" y="137.5" width="4.17" height="4.17"/>
        <rect class="cls-7" x="162.5" y="166.67" width="4.17" height="4.17"/>
      </g>
      <g>
        <rect class="cls-6" x="16.67" y="8.33" width="4.17" height="4.17"/>
        <rect class="cls-6" x="187.5" y="12.5" width="4.17" height="4.17"/>
        <rect class="cls-6" x="187.5" y="162.5" width="8.33" height="4.17"/>
        <rect class="cls-6" x="170.83" y="166.67" width="4.17" height="4.17"/>
      </g>
      <g>
        <rect class="cls-24" x="191.67" y="12.5" width="4.17" height="4.17"/>
        <rect class="cls-24" x="8.33" y="16.67" width="8.33" height="4.17"/>
        <rect class="cls-24" x="183.33" y="16.67" width="8.33" height="4.17"/>
        <rect class="cls-24" x="183.33" y="166.67" width="8.33" height="4.17"/>
      </g>
      <g>
        <rect class="cls-25" x="179.17" y="12.5" width="4.17" height="8.33"/>
        <rect class="cls-25" x="191.67" y="16.67" width="4.17" height="4.17"/>
        <rect class="cls-25" x="16.67" y="20.83" width="4.17" height="4.17"/>
        <rect class="cls-25" x="20.83" y="29.17" width="4.17" height="4.17"/>
        <rect class="cls-25" x="175" y="29.17" width="4.17" height="4.17"/>
        <rect class="cls-25" x="25" y="145.83" width="4.17" height="4.17"/>
        <rect class="cls-25" x="179.17" y="162.5" width="4.17" height="8.33"/>
        <rect class="cls-25" x="191.67" y="166.67" width="4.17" height="4.17"/>
      </g>
      <g>
        <rect class="cls-32" x="29.17" y="20.83" width="8.33" height="4.17"/>
        <rect class="cls-32" x="37.5" y="37.5" width="4.17" height="4.17"/>
        <rect class="cls-32" x="91.67" y="37.5" width="8.33" height="4.17"/>
        <rect class="cls-32" x="116.67" y="37.5" width="4.17" height="4.17"/>
        <rect class="cls-32" x="141.67" y="37.5" width="4.17" height="4.17"/>
        <rect class="cls-32" x="158.33" y="54.17" width="4.17" height="8.33"/>
        <rect class="cls-32" x="150" y="125" width="4.17" height="4.17"/>
        <rect class="cls-32" x="112.5" y="145.83" width="12.5" height="4.17"/>
        <rect class="cls-32" x="129.17" y="145.83" width="4.17" height="4.17"/>
        <rect class="cls-32" x="29.17" y="170.83" width="4.17" height="4.17"/>
      </g>
      <g>
        <rect class="cls-28" x="141.67" y="4.17" width="4.17" height="4.17"/>
        <rect class="cls-28" x="166.67" y="16.67" width="4.17" height="4.17"/>
        <rect class="cls-28" x="37.5" y="20.83" width="8.33" height="4.17"/>
        <rect class="cls-28" x="50" y="20.83" width="41.67" height="4.17"/>
        <rect class="cls-28" x="108.33" y="37.5" width="8.33" height="4.17"/>
        <rect class="cls-28" x="133.33" y="41.67" width="4.17" height="4.17"/>
        <rect class="cls-28" x="54.17" y="45.83" width="4.17" height="4.17"/>
        <rect class="cls-28" x="158.33" y="50" width="4.17" height="4.17"/>
        <rect class="cls-28" x="33.33" y="54.17" width="4.17" height="4.17"/>
        <rect class="cls-28" x="50" y="79.17" width="8.33" height="4.17"/>
        <polygon class="cls-28" points="154.17 91.67 150 91.67 150 95.83 154.17 95.83 158.33 95.83 158.33 83.33 154.17 83.33 154.17 91.67"/>
        <rect class="cls-28" x="45.83" y="95.83" width="4.17" height="4.17"/>
        <rect class="cls-28" x="83.33" y="129.17" width="4.17" height="4.17"/>
        <rect class="cls-28" x="154.17" y="133.33" width="4.17" height="4.17"/>
        <rect class="cls-28" x="133.33" y="137.5" width="4.17" height="4.17"/>
        <rect class="cls-28" x="141.67" y="137.5" width="8.33" height="4.17"/>
        <rect class="cls-28" x="100" y="141.67" width="8.33" height="4.17"/>
        <rect class="cls-28" x="120.83" y="141.67" width="8.33" height="4.17"/>
        <rect class="cls-28" x="137.5" y="141.67" width="4.17" height="4.17"/>
        <rect class="cls-28" x="37.5" y="170.83" width="8.33" height="4.17"/>
        <rect class="cls-28" x="54.17" y="170.83" width="37.5" height="4.17"/>
      </g>
      <g>
        <rect class="cls-13" x="162.5" y="16.67" width="4.17" height="4.17"/>
        <rect class="cls-13" x="25" y="20.83" width="4.17" height="8.33"/>
        <rect class="cls-13" x="100" y="20.83" width="4.17" height="4.17"/>
        <rect class="cls-13" x="162.5" y="58.33" width="4.17" height="4.17"/>
        <rect class="cls-13" x="158.33" y="62.5" width="4.17" height="4.17"/>
        <rect class="cls-13" x="25" y="170.83" width="4.17" height="8.33"/>
        <rect class="cls-13" x="100" y="170.83" width="8.33" height="4.17"/>
      </g>
      <g>
        <rect class="cls-26" x="108.33" y="20.83" width="50" height="4.17"/>
        <rect class="cls-26" x="100" y="37.5" width="8.33" height="4.17"/>
        <rect class="cls-26" x="141.67" y="45.83" width="4.17" height="4.17"/>
        <rect class="cls-26" x="45.83" y="83.33" width="4.17" height="4.17"/>
        <rect class="cls-26" x="62.5" y="83.33" width="4.17" height="8.33"/>
        <rect class="cls-26" x="137.5" y="137.5" width="4.17" height="4.17"/>
        <rect class="cls-26" x="150" y="137.5" width="4.17" height="4.17"/>
        <polygon class="cls-26" points="66.67 141.67 62.5 141.67 62.5 137.5 58.33 137.5 58.33 141.67 54.17 141.67 54.17 137.5 50 137.5 50 141.67 41.67 141.67 41.67 145.83 45.83 145.83 45.83 150 50 150 54.17 150 58.33 150 62.5 150 66.67 150 79.17 150 79.17 145.83 66.67 145.83 66.67 141.67"/>
        <rect class="cls-26" x="158.33" y="141.67" width="4.17" height="4.17"/>
        <rect class="cls-26" x="166.67" y="166.67" width="4.17" height="4.17"/>
        <rect class="cls-26" x="50" y="170.83" width="4.17" height="4.17"/>
        <rect class="cls-26" x="108.33" y="170.83" width="50" height="4.17"/>
      </g>
      <g>
        <rect class="cls-2" x="158.33" y="20.83" width="12.5" height="4.17"/>
        <rect class="cls-2" x="33.33" y="37.5" width="4.17" height="4.17"/>
        <rect class="cls-2" x="33.33" y="137.5" width="4.17" height="4.17"/>
        <rect class="cls-2" x="158.33" y="170.83" width="12.5" height="4.17"/>
      </g>
      <g>
        <rect class="cls-22" x="179.17" y="20.83" width="4.17" height="4.17"/>
        <rect class="cls-22" x="12.5" y="170.83" width="8.33" height="4.17"/>
        <rect class="cls-22" x="179.17" y="170.83" width="4.17" height="4.17"/>
      </g>
      <g>
        <rect class="cls-10" x="179.17" y="8.33" width="4.17" height="4.17"/>
        <rect class="cls-10" x="16.67" y="16.67" width="4.17" height="4.17"/>
        <rect class="cls-10" x="166.67" y="33.33" width="4.17" height="4.17"/>
        <rect class="cls-10" x="29.17" y="145.83" width="4.17" height="4.17"/>
        <rect class="cls-10" x="16.67" y="166.67" width="4.17" height="4.17"/>
        <rect class="cls-10" x="170.83" y="170.83" width="4.17" height="4.17"/>
        <polygon class="cls-10" points="8.33 16.67 4.17 16.67 4.17 25 8.33 25 16.67 25 16.67 20.83 8.33 20.83 8.33 16.67"/>
        <rect class="cls-10" x="183.33" y="20.83" width="8.33" height="4.17"/>
        <rect class="cls-10" x="29.17" y="33.33" width="4.17" height="4.17"/>
        <rect class="cls-10" x="141.67" y="41.67" width="4.17" height="4.17"/>
        <rect class="cls-10" x="54.17" y="75" width="4.17" height="4.17"/>
        <rect class="cls-10" x="179.17" y="158.33" width="4.17" height="4.17"/>
        <rect class="cls-10" x="191.67" y="158.33" width="4.17" height="4.17"/>
        <rect class="cls-10" x="183.33" y="170.83" width="8.33" height="4.17"/>
      </g>
      <g>
        <rect class="cls-5" x="45.83" y="25" width="4.17" height="4.17"/>
        <rect class="cls-5" x="104.17" y="25" width="4.17" height="4.17"/>
        <rect class="cls-5" x="33.33" y="133.33" width="4.17" height="4.17"/>
        <rect class="cls-5" x="162.5" y="133.33" width="4.17" height="4.17"/>
        <rect class="cls-5" x="45.83" y="175" width="4.17" height="4.17"/>
        <rect class="cls-5" x="104.17" y="175" width="4.17" height="4.17"/>
      </g>
      <g>
        <rect class="cls-16" x="170.83" y="12.5" width="4.17" height="8.33"/>
        <rect class="cls-16" x="50" y="25" width="4.17" height="4.17"/>
        <rect class="cls-16" x="70.83" y="25" width="4.17" height="4.17"/>
        <rect class="cls-16" x="116.67" y="25" width="4.17" height="4.17"/>
        <rect class="cls-16" x="120.83" y="33.33" width="25" height="4.17"/>
        <rect class="cls-16" x="154.17" y="129.17" width="4.17" height="4.17"/>
        <rect class="cls-16" x="162.5" y="145.83" width="4.17" height="4.17"/>
        <rect class="cls-16" x="170.83" y="162.5" width="4.17" height="4.17"/>
        <rect class="cls-16" x="50" y="175" width="4.17" height="4.17"/>
        <rect class="cls-16" x="70.83" y="175" width="4.17" height="4.17"/>
        <rect class="cls-16" x="116.67" y="175" width="4.17" height="4.17"/>
      </g>
      <g>
        <rect class="cls-35" x="45.83" y="20.83" width="4.17" height="4.17"/>
        <rect class="cls-35" x="29.17" y="25" width="16.67" height="4.17"/>
        <rect class="cls-35" x="54.17" y="25" width="16.67" height="4.17"/>
        <rect class="cls-35" x="75" y="25" width="16.67" height="4.17"/>
        <polygon class="cls-35" points="95.83 29.17 100 29.17 100 25 100 20.83 91.67 20.83 91.67 25 95.83 25 95.83 29.17"/>
        <rect class="cls-35" x="108.33" y="25" width="4.17" height="4.17"/>
        <rect class="cls-35" x="120.83" y="25" width="50" height="4.17"/>
        <polygon class="cls-35" points="75 37.5 41.67 37.5 41.67 41.67 66.67 41.67 66.67 45.83 70.83 45.83 70.83 41.67 75 41.67 75 37.5"/>
        <rect class="cls-35" x="33.33" y="41.67" width="4.17" height="4.17"/>
        <polygon class="cls-35" points="166.67 58.33 166.67 41.67 166.67 37.5 150 37.5 150 41.67 162.5 41.67 162.5 58.33 166.67 58.33"/>
        <rect class="cls-35" x="158.33" y="66.67" width="4.17" height="4.17"/>
        <rect class="cls-35" x="37.5" y="70.83" width="4.17" height="8.33"/>
        <rect class="cls-35" x="158.33" y="75" width="4.17" height="20.83"/>
        <rect class="cls-35" x="45.83" y="79.17" width="4.17" height="4.17"/>
        <rect class="cls-35" x="158.33" y="100" width="4.17" height="25"/>
        <rect class="cls-35" x="150" y="133.33" width="4.17" height="4.17"/>
        <polygon class="cls-35" points="33.33 150 37.5 150 41.67 150 45.83 150 45.83 145.83 41.67 145.83 41.67 125 37.5 125 37.5 141.67 33.33 141.67 33.33 150"/>
        <polygon class="cls-35" points="141.67 141.67 141.67 145.83 133.33 145.83 133.33 150 141.67 150 154.17 150 158.33 150 162.5 150 162.5 145.83 158.33 145.83 158.33 141.67 162.5 141.67 162.5 145.83 166.67 145.83 166.67 137.5 162.5 137.5 162.5 129.17 158.33 129.17 158.33 137.5 154.17 137.5 154.17 141.67 141.67 141.67"/>
        <rect class="cls-35" x="87.5" y="145.83" width="25" height="4.17"/>
        <polygon class="cls-35" points="37.5 170.83 33.33 170.83 33.33 175 29.17 175 29.17 179.17 33.33 179.17 37.5 179.17 45.83 179.17 45.83 175 37.5 175 37.5 170.83"/>
        <rect class="cls-35" x="45.83" y="170.83" width="4.17" height="4.17"/>
        <polygon class="cls-35" points="91.67 175 95.83 175 95.83 179.17 100 179.17 100 175 100 170.83 91.67 170.83 91.67 175"/>
        <rect class="cls-35" x="54.17" y="175" width="16.67" height="4.17"/>
        <rect class="cls-35" x="75" y="175" width="16.67" height="4.17"/>
        <rect class="cls-35" x="108.33" y="175" width="4.17" height="4.17"/>
        <rect class="cls-35" x="120.83" y="175" width="50" height="4.17"/>
      </g>
      <g>
        <rect class="cls-18" x="170.83" y="20.83" width="4.17" height="8.33"/>
        <rect class="cls-18" x="91.67" y="25" width="4.17" height="4.17"/>
        <rect class="cls-18" x="33.33" y="33.33" width="12.5" height="4.17"/>
        <rect class="cls-18" x="50" y="33.33" width="70.83" height="4.17"/>
        <rect class="cls-18" x="154.17" y="33.33" width="12.5" height="4.17"/>
        <rect class="cls-18" x="41.67" y="75" width="4.17" height="4.17"/>
        <rect class="cls-18" x="83.33" y="141.67" width="4.17" height="4.17"/>
        <rect class="cls-18" x="8.33" y="170.83" width="4.17" height="4.17"/>
        <rect class="cls-18" x="91.67" y="175" width="4.17" height="4.17"/>
        <rect class="cls-18" x="170.83" y="175" width="4.17" height="4.17"/>
      </g>
      <g>
        <rect class="cls-15" x="25" width="150" height="4.17"/>
        <polygon class="cls-15" points="25 4.17 4.17 4.17 4.17 8.33 20.83 8.33 20.83 25 4.17 25 4.17 29.17 20.83 29.17 25 29.17 25 8.33 25 4.17"/>
        <rect class="cls-15" y="8.33" width="4.17" height="16.67"/>
        <polygon class="cls-15" points="179.17 8.33 191.67 8.33 191.67 4.17 175 4.17 175 8.33 175 29.17 179.17 29.17 191.67 29.17 191.67 25 179.17 25 179.17 8.33"/>
        <rect class="cls-15" x="195.83" y="12.5" width="4.17" height="8.33"/>
        <rect class="cls-15" x="191.67" y="20.83" width="4.17" height="4.17"/>
        <polygon class="cls-15" points="116.67 25 112.5 25 112.5 29.17 104.17 29.17 104.17 25 100 25 100 29.17 25 29.17 25 33.33 25 37.5 29.17 37.5 29.17 33.33 100 33.33 104.17 33.33 112.5 33.33 116.67 33.33 145.83 33.33 145.83 37.5 145.83 41.67 150 41.67 150 37.5 154.17 37.5 154.17 33.33 175 33.33 175 29.17 116.67 29.17 116.67 25"/>
        <rect class="cls-15" x="29.17" y="37.5" width="4.17" height="25"/>
        <rect class="cls-15" x="166.67" y="37.5" width="4.17" height="25"/>
        <rect class="cls-15" x="137.5" y="45.83" width="4.17" height="4.17"/>
        <rect class="cls-15" x="133.33" y="50" width="4.17" height="4.17"/>
        <polygon class="cls-15" points="37.5 133.33 37.5 83.33 45.83 83.33 45.83 79.17 37.5 79.17 37.5 62.5 33.33 62.5 33.33 133.33 37.5 133.33"/>
        <rect class="cls-15" x="45.83" y="75" width="8.33" height="4.17"/>
        <rect class="cls-15" x="58.33" y="79.17" width="4.17" height="4.17"/>
        <polygon class="cls-15" points="154.17 125 154.17 129.17 162.5 129.17 162.5 133.33 166.67 133.33 166.67 62.5 162.5 62.5 162.5 70.83 158.33 70.83 158.33 75 162.5 75 162.5 125 154.17 125"/>
        <rect class="cls-15" x="150" y="129.17" width="4.17" height="4.17"/>
        <rect class="cls-15" x="145.83" y="133.33" width="4.17" height="4.17"/>
        <rect class="cls-15" x="29.17" y="137.5" width="4.17" height="8.33"/>
        <rect class="cls-15" x="87.5" y="137.5" width="4.17" height="4.17"/>
        <rect class="cls-15" x="166.67" y="137.5" width="4.17" height="8.33"/>
        <polygon class="cls-15" points="87.5 154.17 175 154.17 175 150 87.5 150 87.5 145.83 79.17 145.83 79.17 150 25 150 25 154.17 79.17 154.17 87.5 154.17"/>
        <polygon class="cls-15" points="25 154.17 8.33 154.17 8.33 158.33 20.83 158.33 20.83 175 8.33 175 8.33 170.83 4.17 170.83 4.17 158.33 0 158.33 0 175 4.17 175 4.17 179.17 8.33 179.17 20.83 179.17 25 179.17 25 158.33 25 154.17"/>
        <polygon class="cls-15" points="179.17 158.33 191.67 158.33 191.67 154.17 175 154.17 175 158.33 175 179.17 179.17 179.17 191.67 179.17 191.67 175 179.17 175 179.17 158.33"/>
        <polygon class="cls-15" points="195.83 170.83 191.67 170.83 191.67 175 195.83 175 200 175 200 158.33 195.83 158.33 195.83 170.83"/>
        <polygon class="cls-15" points="116.67 175 112.5 175 112.5 179.17 104.17 179.17 104.17 175 100 175 100 179.17 25 179.17 25 183.33 100 183.33 104.17 183.33 112.5 183.33 116.67 183.33 175 183.33 175 179.17 116.67 179.17 116.67 175"/>
      </g>
      <g>
        <rect class="cls-31" x="166.67" y="133.33" width="4.17" height="4.17"/>
        <rect class="cls-31" x="175" y="150" width="4.17" height="4.17"/>
        <rect class="cls-31" x="20.83" y="179.17" width="4.17" height="4.17"/>
        <rect class="cls-31" x="175" y="179.17" width="4.17" height="4.17"/>
      </g>
    </g>
  </g>
</svg>