<?xml version="1.0" encoding="UTF-8"?>
<svg id="Calque_2" data-name="Calque 2" xmlns="http://www.w3.org/2000/svg" viewBox="0 0 200 165.96">
  <defs>
    <style>
      .cls-1 {
        fill: #2f2f49;
      }

      .cls-2 {
        fill: #7f2f44;
      }

      .cls-3 {
        fill: #636578;
        isolation: isolate;
        opacity: .89;
      }

      .cls-4 {
        fill: #fbe0ac;
      }

      .cls-5 {
        fill: #808198;
      }

      .cls-6 {
        fill: #18121d;
      }

      .cls-7 {
        fill: #c9882b;
      }

      .cls-8 {
        fill: #441430;
      }

      .cls-9 {
        fill: #e08bac;
      }

      .cls-10 {
        fill: #a4582b;
      }

      .cls-11 {
        fill: #848aa1;
      }

      .cls-12 {
        fill: #fbe2a2;
      }

      .cls-13 {
        fill: #c56c7f;
      }

      .cls-14 {
        fill: #6a6c7f;
      }

      .cls-15 {
        fill: #541532;
      }

      .cls-16 {
        fill: #b14349;
      }

      .cls-17 {
        fill: #2a233b;
      }

      .cls-18 {
        fill: #8f97b1;
      }

      .cls-19 {
        fill: #983c54;
      }

      .cls-20 {
        fill: #a63f46;
      }

      .cls-21 {
        fill: #f4d89e;
      }

      .cls-22 {
        fill: #f6ccac;
      }

      .cls-23 {
        fill: #222347;
      }

      .cls-24 {
        fill: #3a1b32;
      }

      .cls-25 {
        fill: #efe5ab;
      }

      .cls-26 {
        fill: #585a6f;
      }

      .cls-27 {
        fill: #251c36;
      }

      .cls-28 {
        fill: #b76437;
      }

      .cls-29 {
        fill: #301428;
      }

      .cls-30 {
        fill: #6e213c;
      }

      .cls-31 {
        fill: #2e2843;
      }

      .cls-32 {
        fill: #717285;
      }

      .cls-33 {
        fill: #8c8faa;
      }

      .cls-34 {
        fill: #96572f;
      }

      .cls-35 {
        fill: #c6602c;
      }

      .cls-36 {
        fill: #38304c;
      }

      .cls-37 {
        fill: #bc6074;
      }

      .cls-38 {
        fill: #484961;
      }

      .cls-39 {
        fill: #20162b;
      }

      .cls-40 {
        fill: #3d3d56;
      }

      .cls-41 {
        fill: #77788f;
      }

      .cls-42 {
        fill: #8b3249;
      }

      .cls-43 {
        fill: #5f1836;
      }
    </style>
  </defs>
  <g id="Layer_1" data-name="Layer 1" shape-rendering="crispEdges">
    <g>
      <polygon class="cls-37" points="51.06 17.02 46.81 17.02 46.81 21.28 51.06 21.28 55.32 21.28 55.32 17.02 51.06 17.02"/>
      <rect class="cls-19" x="161.7" y="17.02" width="4.26" height="4.26"/>
      <rect class="cls-22" x="97.87" y="21.28" width="4.26" height="4.26"/>
      <g>
        <polygon class="cls-9" points="76.6 21.28 76.6 17.02 72.34 17.02 68.09 17.02 68.09 21.28 72.34 21.28 76.6 21.28"/>
        <polygon class="cls-20" points="80.85 17.02 80.85 21.28 76.6 21.28 76.6 25.53 72.34 25.53 68.09 25.53 68.09 21.28 63.83 21.28 63.83 17.02 59.57 17.02 59.57 21.28 55.32 21.28 51.06 21.28 46.81 21.28 46.81 17.02 42.55 17.02 42.55 21.28 38.3 21.28 38.3 25.53 38.3 29.79 42.55 29.79 46.81 29.79 51.06 29.79 55.32 29.79 59.57 29.79 63.83 29.79 68.09 29.79 72.34 29.79 76.6 29.79 80.85 29.79 85.11 29.79 85.11 25.53 85.11 21.28 85.11 17.02 80.85 17.02"/>
      </g>
      <g>
        <polygon class="cls-24" points="38.3 29.79 38.3 34.04 42.55 34.04 46.81 34.04 46.81 29.79 42.55 29.79 38.3 29.79"/>
        <polygon class="cls-24" points="165.96 29.79 161.7 29.79 157.45 29.79 153.19 29.79 148.94 29.79 144.68 29.79 140.43 29.79 136.17 29.79 131.91 29.79 127.66 29.79 123.4 29.79 119.15 29.79 114.89 29.79 114.89 34.04 119.15 34.04 123.4 34.04 127.66 34.04 131.91 34.04 136.17 34.04 140.43 34.04 144.68 34.04 148.94 34.04 153.19 34.04 157.45 34.04 161.7 34.04 165.96 34.04 170.21 34.04 170.21 29.79 165.96 29.79"/>
      </g>
      <g>
        <rect class="cls-9" x="63.83" y="17.02" width="4.26" height="4.26"/>
        <rect class="cls-16" x="157.45" y="17.02" width="4.26" height="4.26"/>
        <rect class="cls-9" x="55.32" y="17.02" width="4.26" height="4.26"/>
        <rect class="cls-9" x="76.6" y="17.02" width="4.26" height="4.26"/>
        <polygon class="cls-20" points="68.09 21.28 68.09 25.53 72.34 25.53 76.6 25.53 76.6 21.28 72.34 21.28 68.09 21.28"/>
        <rect class="cls-16" x="59.57" y="34.04" width="4.26" height="4.26"/>
        <rect class="cls-16" x="72.34" y="34.04" width="4.26" height="4.26"/>
      </g>
      <rect class="cls-42" x="76.6" y="34.04" width="4.26" height="4.26"/>
      <polygon class="cls-13" points="140.43 34.04 136.17 34.04 136.17 38.3 140.43 38.3 144.68 38.3 144.68 34.04 140.43 34.04"/>
      <g>
        <rect class="cls-30" x="38.3" y="17.02" width="4.26" height="4.26"/>
        <polygon class="cls-30" points="29.79 38.3 29.79 42.55 29.79 46.81 34.04 46.81 34.04 42.55 34.04 38.3 34.04 34.04 29.79 34.04 29.79 38.3"/>
        <rect class="cls-30" x="123.4" y="34.04" width="4.26" height="4.26"/>
      </g>
      <g>
        <rect class="cls-10" x="38.3" y="46.81" width="4.26" height="4.26"/>
        <rect class="cls-10" x="157.45" y="46.81" width="4.26" height="4.26"/>
      </g>
      <g>
        <rect class="cls-21" x="17.02" y="55.32" width="4.26" height="4.26"/>
        <rect class="cls-21" x="34.04" y="55.32" width="4.26" height="4.26"/>
      </g>
      <g>
        <rect class="cls-5" x="182.98" y="42.55" width="4.26" height="4.26"/>
        <rect class="cls-5" x="131.91" y="55.32" width="4.26" height="4.26"/>
        <polygon class="cls-5" points="8.51 63.83 4.26 63.83 4.26 68.09 4.26 72.34 8.51 72.34 12.77 72.34 12.77 68.09 8.51 68.09 8.51 63.83"/>
        <polygon class="cls-5" points="178.72 63.83 174.47 63.83 174.47 68.09 174.47 72.34 178.72 72.34 182.98 72.34 182.98 68.09 178.72 68.09 178.72 63.83"/>
      </g>
      <rect class="cls-25" x="38.3" y="85.11" width="4.26" height="4.26"/>
      <g>
        <polygon class="cls-29" points="76.6 8.51 72.34 8.51 68.09 8.51 63.83 8.51 59.57 8.51 55.32 8.51 51.06 8.51 46.81 8.51 42.55 8.51 38.3 8.51 38.3 12.77 42.55 12.77 46.81 12.77 51.06 12.77 55.32 12.77 59.57 12.77 63.83 12.77 68.09 12.77 72.34 12.77 76.6 12.77 80.85 12.77 85.11 12.77 85.11 8.51 80.85 8.51 76.6 8.51"/>
        <polygon class="cls-29" points="157.45 8.51 153.19 8.51 148.94 8.51 144.68 8.51 140.43 8.51 136.17 8.51 131.91 8.51 127.66 8.51 123.4 8.51 119.15 8.51 114.89 8.51 114.89 12.77 119.15 12.77 123.4 12.77 127.66 12.77 131.91 12.77 136.17 12.77 140.43 12.77 144.68 12.77 148.94 12.77 153.19 12.77 157.45 12.77 161.7 12.77 161.7 8.51 157.45 8.51"/>
        <rect class="cls-29" x="34.04" y="29.79" width="4.26" height="4.26"/>
        <rect class="cls-29" x="38.3" y="80.85" width="4.26" height="4.26"/>
        <polygon class="cls-29" points="131.91 80.85 131.91 85.11 131.91 89.36 136.17 89.36 140.43 89.36 140.43 85.11 140.43 80.85 136.17 80.85 131.91 80.85"/>
      </g>
      <rect class="cls-34" x="38.3" y="89.36" width="4.26" height="4.26"/>
      <g>
        <polygon class="cls-7" points="102.13 85.11 97.87 85.11 93.62 85.11 93.62 89.36 93.62 93.62 93.62 97.87 97.87 97.87 97.87 93.62 97.87 89.36 102.13 89.36 102.13 85.11"/>
        <polygon class="cls-7" points="106.38 85.11 106.38 89.36 106.38 93.62 110.64 93.62 110.64 89.36 110.64 85.11 106.38 85.11"/>
        <rect class="cls-7" x="102.13" y="93.62" width="4.26" height="4.26"/>
      </g>
      <g>
        <polygon class="cls-32" points="21.28 17.02 21.28 21.28 21.28 25.53 25.53 25.53 25.53 21.28 25.53 17.02 25.53 12.77 21.28 12.77 21.28 17.02"/>
        <polygon class="cls-32" points="12.77 34.04 12.77 38.3 8.51 38.3 8.51 42.55 12.77 42.55 17.02 42.55 17.02 38.3 21.28 38.3 21.28 34.04 17.02 34.04 12.77 34.04"/>
        <rect class="cls-32" x="182.98" y="85.11" width="4.26" height="4.26"/>
        <rect class="cls-32" x="182.98" y="102.13" width="4.26" height="4.26"/>
      </g>
      <g>
        <rect class="cls-8" x="29.79" y="46.81" width="4.26" height="4.26"/>
        <rect class="cls-8" x="148.94" y="46.81" width="4.26" height="4.26"/>
        <rect class="cls-8" x="165.96" y="46.81" width="4.26" height="4.26"/>
        <polygon class="cls-8" points="29.79 80.85 29.79 85.11 29.79 89.36 34.04 89.36 34.04 85.11 38.3 85.11 38.3 80.85 34.04 80.85 29.79 80.85"/>
        <polygon class="cls-8" points="148.94 80.85 144.68 80.85 140.43 80.85 140.43 85.11 140.43 89.36 136.17 89.36 131.91 89.36 131.91 93.62 136.17 93.62 140.43 93.62 144.68 93.62 148.94 93.62 153.19 93.62 153.19 89.36 153.19 85.11 157.45 85.11 157.45 80.85 153.19 80.85 148.94 80.85"/>
        <polygon class="cls-8" points="165.96 85.11 165.96 89.36 165.96 93.62 170.21 93.62 170.21 89.36 170.21 85.11 170.21 80.85 165.96 80.85 165.96 85.11"/>
        <rect class="cls-8" x="127.66" y="97.87" width="4.26" height="4.26"/>
        <rect class="cls-8" x="80.85" y="110.64" width="4.26" height="4.26"/>
        <rect class="cls-8" x="29.79" y="114.89" width="4.26" height="4.26"/>
      </g>
      <g>
        <rect class="cls-6" x="97.87" y="17.02" width="4.26" height="4.26"/>
        <rect class="cls-6" x="161.7" y="85.11" width="4.26" height="4.26"/>
        <polygon class="cls-6" points="102.13 93.62 102.13 89.36 97.87 89.36 97.87 93.62 97.87 97.87 102.13 97.87 102.13 93.62"/>
        <polygon class="cls-6" points="123.4 102.13 123.4 106.38 127.66 106.38 127.66 102.13 127.66 97.87 123.4 97.87 123.4 102.13"/>
        <rect class="cls-6" x="97.87" y="102.13" width="4.26" height="4.26"/>
        <rect class="cls-6" x="119.15" y="106.38" width="4.26" height="4.26"/>
        <rect class="cls-6" x="85.11" y="110.64" width="4.26" height="4.26"/>
        <polygon class="cls-6" points="110.64 110.64 110.64 114.89 114.89 114.89 119.15 114.89 119.15 110.64 114.89 110.64 110.64 110.64"/>
        <polygon class="cls-6" points="102.13 114.89 97.87 114.89 93.62 114.89 89.36 114.89 89.36 119.15 93.62 119.15 97.87 119.15 102.13 119.15 106.38 119.15 110.64 119.15 110.64 114.89 106.38 114.89 102.13 114.89"/>
      </g>
      <rect class="cls-23" x="161.7" y="114.89" width="4.26" height="4.26"/>
      <g>
        <rect class="cls-35" x="106.38" y="80.85" width="4.26" height="4.26"/>
        <polygon class="cls-35" points="102.13 89.36 102.13 93.62 106.38 93.62 106.38 89.36 106.38 85.11 102.13 85.11 102.13 89.36"/>
        <polygon class="cls-35" points="89.36 97.87 89.36 102.13 93.62 102.13 97.87 102.13 97.87 97.87 93.62 97.87 89.36 97.87"/>
        <rect class="cls-35" x="157.45" y="89.36" width="4.26" height="4.26"/>
        <polygon class="cls-35" points="102.13 97.87 102.13 102.13 106.38 102.13 110.64 102.13 110.64 97.87 110.64 93.62 106.38 93.62 106.38 97.87 102.13 97.87"/>
        <rect class="cls-35" x="38.3" y="119.15" width="4.26" height="4.26"/>
      </g>
      <rect class="cls-28" x="157.45" y="119.15" width="4.26" height="4.26"/>
      <g>
        <polygon class="cls-16" points="157.45 21.28 157.45 17.02 153.19 17.02 148.94 17.02 144.68 17.02 140.43 17.02 136.17 17.02 131.91 17.02 127.66 17.02 123.4 17.02 123.4 21.28 127.66 21.28 131.91 21.28 136.17 21.28 140.43 21.28 144.68 21.28 148.94 21.28 153.19 21.28 157.45 21.28"/>
        <polygon class="cls-16" points="42.55 34.04 38.3 34.04 34.04 34.04 34.04 38.3 38.3 38.3 42.55 38.3 42.55 34.04"/>
        <polygon class="cls-16" points="51.06 34.04 46.81 34.04 46.81 38.3 51.06 38.3 55.32 38.3 59.57 38.3 59.57 34.04 55.32 34.04 51.06 34.04"/>
        <rect class="cls-16" x="127.66" y="34.04" width="4.26" height="4.26"/>
        <rect class="cls-16" x="144.68" y="34.04" width="4.26" height="4.26"/>
        <polygon class="cls-16" points="157.45 34.04 153.19 34.04 153.19 38.3 157.45 38.3 161.7 38.3 161.7 34.04 157.45 34.04"/>
        <polygon class="cls-16" points="42.55 127.66 42.55 131.91 46.81 131.91 51.06 131.91 51.06 127.66 46.81 127.66 42.55 127.66"/>
        <polygon class="cls-16" points="72.34 127.66 68.09 127.66 68.09 131.91 72.34 131.91 76.6 131.91 80.85 131.91 80.85 127.66 76.6 127.66 72.34 127.66"/>
      </g>
      <g>
        <polygon class="cls-43" points="42.55 12.77 38.3 12.77 38.3 17.02 42.55 17.02 46.81 17.02 46.81 12.77 42.55 12.77"/>
        <polygon class="cls-43" points="34.04 21.28 29.79 21.28 29.79 25.53 29.79 29.79 34.04 29.79 38.3 29.79 38.3 25.53 38.3 21.28 38.3 17.02 34.04 17.02 34.04 21.28"/>
        <polygon class="cls-43" points="38.3 136.17 38.3 140.43 42.55 140.43 42.55 136.17 42.55 131.91 38.3 131.91 38.3 136.17"/>
      </g>
      <g>
        <polygon class="cls-2" points="55.32 17.02 59.57 17.02 63.83 17.02 68.09 17.02 72.34 17.02 76.6 17.02 80.85 17.02 85.11 17.02 85.11 12.77 80.85 12.77 76.6 12.77 72.34 12.77 68.09 12.77 63.83 12.77 59.57 12.77 55.32 12.77 51.06 12.77 46.81 12.77 46.81 17.02 51.06 17.02 55.32 17.02"/>
        <polygon class="cls-2" points="165.96 21.28 161.7 21.28 157.45 21.28 153.19 21.28 148.94 21.28 144.68 21.28 140.43 21.28 136.17 21.28 131.91 21.28 127.66 21.28 123.4 21.28 123.4 17.02 127.66 17.02 131.91 17.02 136.17 17.02 140.43 17.02 144.68 17.02 148.94 17.02 153.19 17.02 157.45 17.02 161.7 17.02 161.7 12.77 157.45 12.77 153.19 12.77 148.94 12.77 144.68 12.77 140.43 12.77 136.17 12.77 131.91 12.77 127.66 12.77 123.4 12.77 119.15 12.77 119.15 17.02 119.15 21.28 119.15 25.53 123.4 25.53 123.4 29.79 127.66 29.79 131.91 29.79 136.17 29.79 140.43 29.79 144.68 29.79 148.94 29.79 153.19 29.79 157.45 29.79 161.7 29.79 165.96 29.79 170.21 29.79 170.21 25.53 170.21 21.28 165.96 21.28"/>
        <polygon class="cls-2" points="161.7 34.04 161.7 38.3 157.45 38.3 153.19 38.3 153.19 34.04 148.94 34.04 148.94 38.3 144.68 38.3 140.43 38.3 136.17 38.3 136.17 34.04 131.91 34.04 131.91 38.3 127.66 38.3 127.66 42.55 127.66 46.81 131.91 46.81 131.91 51.06 136.17 51.06 140.43 51.06 144.68 51.06 148.94 51.06 148.94 46.81 153.19 46.81 153.19 42.55 157.45 42.55 161.7 42.55 165.96 42.55 165.96 46.81 170.21 46.81 170.21 42.55 170.21 38.3 170.21 34.04 165.96 34.04 161.7 34.04"/>
        <polygon class="cls-2" points="42.55 42.55 46.81 42.55 46.81 46.81 46.81 51.06 51.06 51.06 55.32 51.06 59.57 51.06 63.83 51.06 68.09 51.06 72.34 51.06 76.6 51.06 80.85 51.06 80.85 46.81 85.11 46.81 85.11 42.55 85.11 38.3 85.11 34.04 80.85 34.04 80.85 38.3 76.6 38.3 72.34 38.3 72.34 34.04 68.09 34.04 63.83 34.04 63.83 38.3 59.57 38.3 55.32 38.3 51.06 38.3 46.81 38.3 46.81 34.04 42.55 34.04 42.55 38.3 38.3 38.3 34.04 38.3 34.04 42.55 38.3 42.55 42.55 42.55"/>
        <polygon class="cls-2" points="59.57 89.36 55.32 89.36 51.06 89.36 46.81 89.36 46.81 93.62 51.06 93.62 55.32 93.62 59.57 93.62 63.83 93.62 68.09 93.62 68.09 89.36 63.83 89.36 59.57 89.36"/>
        <polygon class="cls-2" points="42.55 114.89 46.81 114.89 46.81 119.15 46.81 123.4 51.06 123.4 55.32 123.4 59.57 123.4 63.83 123.4 68.09 123.4 72.34 123.4 76.6 123.4 80.85 123.4 85.11 123.4 85.11 119.15 80.85 119.15 80.85 114.89 80.85 110.64 76.6 110.64 76.6 106.38 72.34 106.38 72.34 102.13 72.34 97.87 68.09 97.87 63.83 97.87 59.57 97.87 55.32 97.87 51.06 97.87 46.81 97.87 42.55 97.87 38.3 97.87 34.04 97.87 34.04 102.13 34.04 106.38 34.04 110.64 34.04 114.89 38.3 114.89 38.3 110.64 42.55 110.64 42.55 114.89"/>
        <polygon class="cls-2" points="102.13 140.43 97.87 140.43 97.87 136.17 93.62 136.17 93.62 131.91 89.36 131.91 85.11 131.91 85.11 127.66 80.85 127.66 80.85 131.91 76.6 131.91 72.34 131.91 68.09 131.91 68.09 127.66 63.83 127.66 59.57 127.66 55.32 127.66 51.06 127.66 51.06 131.91 46.81 131.91 42.55 131.91 42.55 136.17 42.55 140.43 46.81 140.43 46.81 136.17 51.06 136.17 55.32 136.17 55.32 140.43 51.06 140.43 46.81 140.43 46.81 144.68 51.06 144.68 55.32 144.68 59.57 144.68 63.83 144.68 68.09 144.68 72.34 144.68 76.6 144.68 80.85 144.68 85.11 144.68 89.36 144.68 93.62 144.68 97.87 144.68 102.13 144.68 106.38 144.68 110.64 144.68 110.64 140.43 106.38 140.43 102.13 140.43"/>
      </g>
      <g>
        <polygon class="cls-15" points="123.4 29.79 123.4 25.53 119.15 25.53 119.15 21.28 119.15 17.02 119.15 12.77 114.89 12.77 114.89 17.02 114.89 21.28 114.89 25.53 114.89 29.79 119.15 29.79 123.4 29.79"/>
        <polygon class="cls-15" points="119.15 51.06 123.4 51.06 127.66 51.06 131.91 51.06 131.91 46.81 127.66 46.81 127.66 42.55 127.66 38.3 123.4 38.3 123.4 34.04 119.15 34.04 114.89 34.04 114.89 38.3 114.89 42.55 114.89 46.81 119.15 46.81 119.15 51.06"/>
        <polygon class="cls-15" points="59.57 80.85 55.32 80.85 51.06 80.85 46.81 80.85 42.55 80.85 42.55 85.11 46.81 85.11 46.81 89.36 51.06 89.36 55.32 89.36 59.57 89.36 63.83 89.36 68.09 89.36 68.09 85.11 68.09 80.85 63.83 80.85 59.57 80.85"/>
        <rect class="cls-15" x="29.79" y="89.36" width="4.26" height="4.26"/>
        <polygon class="cls-15" points="165.96 97.87 161.7 97.87 157.45 97.87 153.19 97.87 148.94 97.87 144.68 97.87 140.43 97.87 136.17 97.87 131.91 97.87 131.91 102.13 127.66 102.13 127.66 106.38 123.4 106.38 123.4 110.64 119.15 110.64 119.15 114.89 114.89 114.89 110.64 114.89 110.64 119.15 106.38 119.15 102.13 119.15 97.87 119.15 93.62 119.15 89.36 119.15 89.36 114.89 85.11 114.89 80.85 114.89 80.85 119.15 85.11 119.15 85.11 123.4 89.36 123.4 93.62 123.4 97.87 123.4 102.13 123.4 106.38 123.4 110.64 123.4 114.89 123.4 119.15 123.4 123.4 123.4 127.66 123.4 131.91 123.4 136.17 123.4 140.43 123.4 144.68 123.4 148.94 123.4 153.19 123.4 153.19 119.15 153.19 114.89 157.45 114.89 157.45 110.64 161.7 110.64 161.7 114.89 165.96 114.89 165.96 119.15 165.96 123.4 170.21 123.4 170.21 119.15 170.21 114.89 170.21 110.64 170.21 106.38 170.21 102.13 170.21 97.87 165.96 97.87"/>
        <polygon class="cls-15" points="34.04 110.64 34.04 106.38 34.04 102.13 34.04 97.87 29.79 97.87 29.79 102.13 29.79 106.38 29.79 110.64 29.79 114.89 34.04 114.89 34.04 110.64"/>
        <rect class="cls-15" x="29.79" y="119.15" width="4.26" height="4.26"/>
        <polygon class="cls-15" points="161.7 127.66 157.45 127.66 153.19 127.66 148.94 127.66 144.68 127.66 140.43 127.66 136.17 127.66 131.91 127.66 127.66 127.66 123.4 127.66 119.15 127.66 114.89 127.66 110.64 127.66 106.38 127.66 102.13 127.66 97.87 127.66 93.62 127.66 89.36 127.66 85.11 127.66 85.11 131.91 89.36 131.91 93.62 131.91 93.62 136.17 97.87 136.17 97.87 140.43 102.13 140.43 106.38 140.43 110.64 140.43 110.64 144.68 114.89 144.68 119.15 144.68 123.4 144.68 127.66 144.68 131.91 144.68 136.17 144.68 140.43 144.68 144.68 144.68 148.94 144.68 153.19 144.68 157.45 144.68 161.7 144.68 161.7 140.43 161.7 136.17 165.96 136.17 165.96 131.91 170.21 131.91 170.21 127.66 165.96 127.66 161.7 127.66"/>
        <polygon class="cls-15" points="38.3 136.17 38.3 131.91 42.55 131.91 42.55 127.66 38.3 127.66 34.04 127.66 29.79 127.66 29.79 131.91 34.04 131.91 34.04 136.17 38.3 136.17"/>
        <polygon class="cls-15" points="46.81 136.17 46.81 140.43 51.06 140.43 55.32 140.43 55.32 136.17 51.06 136.17 46.81 136.17"/>
        <polygon class="cls-15" points="38.3 140.43 38.3 144.68 42.55 144.68 46.81 144.68 46.81 140.43 42.55 140.43 38.3 140.43"/>
      </g>
      <g>
        <rect class="cls-12" x="17.02" y="4.26" width="4.26" height="4.26"/>
        <rect class="cls-12" x="170.21" y="4.26" width="4.26" height="4.26"/>
        <rect class="cls-12" x="85.11" y="51.06" width="4.26" height="4.26"/>
        <rect class="cls-12" x="4.26" y="59.57" width="4.26" height="4.26"/>
        <rect class="cls-12" x="12.77" y="59.57" width="4.26" height="4.26"/>
        <rect class="cls-12" x="182.98" y="59.57" width="4.26" height="4.26"/>
        <rect class="cls-12" x="89.36" y="93.62" width="4.26" height="4.26"/>
        <rect class="cls-12" x="4.26" y="144.68" width="4.26" height="4.26"/>
      </g>
      <g>
        <polygon class="cls-4" points="17.02 21.28 17.02 17.02 17.02 12.77 12.77 12.77 12.77 17.02 12.77 21.28 12.77 25.53 17.02 25.53 17.02 21.28"/>
        <polygon class="cls-4" points="12.77 34.04 12.77 29.79 12.77 25.53 8.51 25.53 8.51 29.79 8.51 34.04 8.51 38.3 12.77 38.3 12.77 34.04"/>
        <polygon class="cls-4" points="93.62 34.04 93.62 29.79 93.62 25.53 93.62 21.28 93.62 17.02 93.62 12.77 93.62 8.51 89.36 8.51 89.36 12.77 89.36 17.02 89.36 21.28 89.36 25.53 89.36 29.79 89.36 34.04 89.36 38.3 93.62 38.3 93.62 34.04"/>
        <polygon class="cls-4" points="178.72 34.04 178.72 29.79 178.72 25.53 178.72 21.28 178.72 17.02 178.72 12.77 178.72 8.51 174.47 8.51 174.47 12.77 174.47 17.02 174.47 21.28 174.47 25.53 174.47 29.79 174.47 34.04 174.47 38.3 178.72 38.3 178.72 34.04"/>
        <rect class="cls-4" x="38.3" y="42.55" width="4.26" height="4.26"/>
        <polygon class="cls-4" points="97.87 46.81 102.13 46.81 102.13 42.55 97.87 42.55 93.62 42.55 89.36 42.55 89.36 46.81 93.62 46.81 97.87 46.81"/>
        <rect class="cls-4" x="157.45" y="42.55" width="4.26" height="4.26"/>
        <rect class="cls-4" x="85.11" y="46.81" width="4.26" height="4.26"/>
        <polygon class="cls-4" points="12.77 59.57 12.77 55.32 8.51 55.32 4.26 55.32 4.26 59.57 8.51 59.57 12.77 59.57"/>
        <rect class="cls-4" x="38.3" y="55.32" width="4.26" height="4.26"/>
        <polygon class="cls-4" points="97.87 55.32 93.62 55.32 89.36 55.32 89.36 59.57 93.62 59.57 97.87 59.57 102.13 59.57 106.38 59.57 106.38 55.32 102.13 55.32 97.87 55.32"/>
        <polygon class="cls-4" points="178.72 55.32 174.47 55.32 174.47 59.57 174.47 63.83 178.72 63.83 178.72 59.57 182.98 59.57 182.98 55.32 178.72 55.32"/>
        <polygon class="cls-4" points="80.85 59.57 80.85 63.83 76.6 63.83 76.6 68.09 76.6 72.34 80.85 72.34 80.85 68.09 85.11 68.09 85.11 63.83 89.36 63.83 89.36 59.57 85.11 59.57 80.85 59.57"/>
        <polygon class="cls-4" points="97.87 80.85 93.62 80.85 89.36 80.85 89.36 85.11 89.36 89.36 89.36 93.62 93.62 93.62 93.62 89.36 93.62 85.11 97.87 85.11 102.13 85.11 106.38 85.11 106.38 80.85 102.13 80.85 97.87 80.85"/>
        <rect class="cls-4" x="157.45" y="85.11" width="4.26" height="4.26"/>
        <rect class="cls-4" x="38.3" y="114.89" width="4.26" height="4.26"/>
        <rect class="cls-4" x="157.45" y="114.89" width="4.26" height="4.26"/>
        <polygon class="cls-4" points="12.77 136.17 8.51 136.17 8.51 140.43 8.51 144.68 12.77 144.68 12.77 140.43 17.02 140.43 21.28 140.43 21.28 136.17 17.02 136.17 12.77 136.17"/>
        <polygon class="cls-4" points="170.21 136.17 170.21 140.43 174.47 140.43 178.72 140.43 178.72 136.17 174.47 136.17 170.21 136.17"/>
        <polygon class="cls-4" points="165.96 144.68 165.96 148.94 170.21 148.94 170.21 144.68 170.21 140.43 165.96 140.43 165.96 144.68"/>
      </g>
      <g>
        <rect class="cls-1" x="25.53" y="12.77" width="4.26" height="4.26"/>
        <polygon class="cls-1" points="174.47 12.77 170.21 12.77 170.21 8.51 165.96 8.51 165.96 12.77 165.96 17.02 170.21 17.02 174.47 17.02 174.47 12.77"/>
        <rect class="cls-1" x="102.13" y="21.28" width="4.26" height="4.26"/>
        <rect class="cls-1" x="182.98" y="38.3" width="4.26" height="4.26"/>
        <rect class="cls-1" x="110.64" y="55.32" width="4.26" height="4.26"/>
        <rect class="cls-1" x="59.57" y="63.83" width="4.26" height="4.26"/>
        <rect class="cls-1" x="34.04" y="89.36" width="4.26" height="4.26"/>
        <rect class="cls-1" x="114.89" y="106.38" width="4.26" height="4.26"/>
        <rect class="cls-1" x="17.02" y="140.43" width="4.26" height="4.26"/>
        <rect class="cls-1" x="21.28" y="144.68" width="4.26" height="4.26"/>
        <rect class="cls-1" x="174.47" y="144.68" width="4.26" height="4.26"/>
      </g>
      <g>
        <rect class="cls-36" x="187.23" y="25.53" width="4.26" height="4.26"/>
        <rect class="cls-36" x="153.19" y="42.55" width="4.26" height="4.26"/>
        <rect class="cls-36" x="63.83" y="63.83" width="4.26" height="4.26"/>
        <polygon class="cls-36" points="136.17 63.83 136.17 68.09 140.43 68.09 144.68 68.09 144.68 63.83 140.43 63.83 136.17 63.83"/>
        <rect class="cls-36" x="157.45" y="63.83" width="4.26" height="4.26"/>
        <rect class="cls-36" x="42.55" y="89.36" width="4.26" height="4.26"/>
        <rect class="cls-36" x="38.3" y="110.64" width="4.26" height="4.26"/>
        <rect class="cls-36" x="12.77" y="140.43" width="4.26" height="4.26"/>
        <rect class="cls-36" x="178.72" y="140.43" width="4.26" height="4.26"/>
        <rect class="cls-36" x="8.51" y="148.94" width="4.26" height="4.26"/>
      </g>
      <g>
        <polygon class="cls-33" points="178.72 4.26 174.47 4.26 174.47 8.51 178.72 8.51 182.98 8.51 182.98 4.26 178.72 4.26"/>
        <polygon class="cls-33" points="51.06 59.57 55.32 59.57 59.57 59.57 63.83 59.57 68.09 59.57 72.34 59.57 76.6 59.57 76.6 55.32 72.34 55.32 68.09 55.32 63.83 55.32 59.57 55.32 55.32 55.32 51.06 55.32 46.81 55.32 42.55 55.32 42.55 59.57 46.81 59.57 51.06 59.57"/>
        <polygon class="cls-33" points="161.7 55.32 157.45 55.32 153.19 55.32 148.94 55.32 144.68 55.32 140.43 55.32 136.17 55.32 136.17 59.57 140.43 59.57 144.68 59.57 148.94 59.57 153.19 59.57 157.45 59.57 161.7 59.57 165.96 59.57 170.21 59.57 170.21 55.32 165.96 55.32 161.7 55.32"/>
        <rect class="cls-33" x="114.89" y="63.83" width="4.26" height="4.26"/>
        <rect class="cls-33" x="76.6" y="72.34" width="4.26" height="4.26"/>
        <polygon class="cls-33" points="8.51 97.87 8.51 102.13 8.51 106.38 12.77 106.38 12.77 102.13 12.77 97.87 12.77 93.62 8.51 93.62 8.51 97.87"/>
        <rect class="cls-33" x="17.02" y="97.87" width="4.26" height="4.26"/>
        <polygon class="cls-33" points="123.4 148.94 119.15 148.94 114.89 148.94 110.64 148.94 106.38 148.94 102.13 148.94 97.87 148.94 93.62 148.94 89.36 148.94 85.11 148.94 80.85 148.94 76.6 148.94 72.34 148.94 68.09 148.94 63.83 148.94 59.57 148.94 55.32 148.94 51.06 148.94 46.81 148.94 46.81 153.19 51.06 153.19 55.32 153.19 59.57 153.19 63.83 153.19 68.09 153.19 72.34 153.19 76.6 153.19 80.85 153.19 85.11 153.19 89.36 153.19 93.62 153.19 97.87 153.19 102.13 153.19 106.38 153.19 110.64 153.19 114.89 153.19 119.15 153.19 123.4 153.19 127.66 153.19 131.91 153.19 131.91 148.94 127.66 148.94 123.4 148.94"/>
      </g>
      <g>
        <rect class="cls-14" x="102.13" y="17.02" width="4.26" height="4.26"/>
        <polygon class="cls-14" points="182.98 38.3 182.98 34.04 187.23 34.04 187.23 29.79 187.23 25.53 182.98 25.53 182.98 21.28 187.23 21.28 187.23 17.02 182.98 17.02 182.98 12.77 182.98 8.51 178.72 8.51 178.72 12.77 178.72 17.02 178.72 21.28 178.72 25.53 178.72 29.79 178.72 34.04 178.72 38.3 178.72 42.55 182.98 42.55 182.98 38.3"/>
        <polygon class="cls-14" points="12.77 42.55 8.51 42.55 8.51 46.81 8.51 51.06 12.77 51.06 17.02 51.06 17.02 46.81 12.77 46.81 12.77 42.55"/>
        <rect class="cls-14" x="102.13" y="46.81" width="4.26" height="4.26"/>
        <rect class="cls-14" x="110.64" y="51.06" width="4.26" height="4.26"/>
        <rect class="cls-14" x="191.49" y="55.32" width="4.26" height="4.26"/>
        <polygon class="cls-14" points="59.57 59.57 55.32 59.57 51.06 59.57 46.81 59.57 42.55 59.57 38.3 59.57 34.04 59.57 29.79 59.57 29.79 63.83 29.79 68.09 29.79 72.34 34.04 72.34 34.04 68.09 34.04 63.83 38.3 63.83 42.55 63.83 46.81 63.83 46.81 68.09 46.81 72.34 51.06 72.34 55.32 72.34 55.32 68.09 55.32 63.83 59.57 63.83 59.57 59.57"/>
        <rect class="cls-14" x="38.3" y="68.09" width="4.26" height="4.26"/>
        <rect class="cls-14" x="59.57" y="68.09" width="4.26" height="4.26"/>
        <path class="cls-14" d="M114.89,72.34v-4.26h-4.26v-4.26h-25.53v4.26h-4.26v8.51h-4.26v25.53h4.26v4.26h8.51v-4.26h-4.26v-4.26h-4.26v-17.02h8.51v-4.26h25.53v4.26h4.26v12.77h4.26v-21.28h-8.51ZM93.62,72.34h-4.26v-4.26h8.51v4.26h-4.26Z"/>
        <polygon class="cls-14" points="114.89 97.87 114.89 102.13 119.15 102.13 119.15 97.87 119.15 93.62 114.89 93.62 114.89 97.87"/>
        <rect class="cls-14" x="182.98" y="123.4" width="4.26" height="4.26"/>
        <polygon class="cls-14" points="182.98 136.17 182.98 140.43 187.23 140.43 191.49 140.43 191.49 136.17 187.23 136.17 182.98 136.17"/>
        <polygon class="cls-14" points="140.43 148.94 136.17 148.94 131.91 148.94 131.91 153.19 136.17 153.19 140.43 153.19 144.68 153.19 148.94 153.19 148.94 148.94 144.68 148.94 140.43 148.94"/>
      </g>
      <g>
        <rect class="cls-26" x="165.96" y="4.26" width="4.26" height="4.26"/>
        <rect class="cls-26" x="97.87" y="8.51" width="4.26" height="4.26"/>
        <polygon class="cls-26" points="178.72 42.55 178.72 46.81 178.72 51.06 182.98 51.06 182.98 46.81 182.98 42.55 178.72 42.55"/>
        <rect class="cls-26" x="21.28" y="46.81" width="4.26" height="4.26"/>
        <polygon class="cls-26" points="80.85 85.11 80.85 89.36 80.85 93.62 80.85 97.87 85.11 97.87 85.11 93.62 85.11 89.36 85.11 85.11 85.11 80.85 80.85 80.85 80.85 85.11"/>
        <rect class="cls-26" x="12.77" y="127.66" width="4.26" height="4.26"/>
        <rect class="cls-26" x="42.55" y="148.94" width="4.26" height="4.26"/>
        <polygon class="cls-26" points="153.19 148.94 148.94 148.94 148.94 153.19 153.19 153.19 157.45 153.19 161.7 153.19 161.7 148.94 157.45 148.94 153.19 148.94"/>
      </g>
      <g>
        <rect class="cls-38" x="153.19" y="46.81" width="4.26" height="4.26"/>
        <rect class="cls-38" x="187.23" y="55.32" width="4.26" height="4.26"/>
        <rect class="cls-38" x="59.57" y="59.57" width="4.26" height="4.26"/>
        <rect class="cls-38" x="178.72" y="59.57" width="4.26" height="4.26"/>
        <rect class="cls-38" x="191.49" y="59.57" width="4.26" height="4.26"/>
        <rect class="cls-38" x="8.51" y="63.83" width="4.26" height="4.26"/>
        <polygon class="cls-38" points="21.28 68.09 21.28 72.34 25.53 72.34 25.53 68.09 25.53 63.83 21.28 63.83 21.28 68.09"/>
        <rect class="cls-38" x="110.64" y="76.6" width="4.26" height="4.26"/>
        <polygon class="cls-38" points="114.89 85.11 114.89 89.36 114.89 93.62 119.15 93.62 119.15 89.36 119.15 85.11 119.15 80.85 114.89 80.85 114.89 85.11"/>
        <rect class="cls-38" x="8.51" y="106.38" width="4.26" height="4.26"/>
        <rect class="cls-38" x="34.04" y="114.89" width="4.26" height="4.26"/>
        <rect class="cls-38" x="153.19" y="114.89" width="4.26" height="4.26"/>
        <polygon class="cls-38" points="178.72 148.94 178.72 153.19 182.98 153.19 182.98 148.94 182.98 144.68 178.72 144.68 178.72 148.94"/>
      </g>
      <g>
        <polygon class="cls-11" points="21.28 4.26 21.28 8.51 17.02 8.51 17.02 12.77 17.02 17.02 17.02 21.28 17.02 25.53 21.28 25.53 21.28 21.28 21.28 17.02 21.28 12.77 25.53 12.77 25.53 8.51 29.79 8.51 29.79 4.26 25.53 4.26 21.28 4.26"/>
        <polygon class="cls-11" points="106.38 12.77 102.13 12.77 97.87 12.77 93.62 12.77 93.62 17.02 93.62 21.28 97.87 21.28 97.87 17.02 102.13 17.02 106.38 17.02 106.38 21.28 106.38 25.53 106.38 29.79 102.13 29.79 97.87 29.79 97.87 34.04 93.62 34.04 93.62 38.3 97.87 38.3 102.13 38.3 106.38 38.3 110.64 38.3 110.64 34.04 110.64 29.79 110.64 25.53 110.64 21.28 110.64 17.02 110.64 12.77 110.64 8.51 106.38 8.51 106.38 12.77"/>
        <polygon class="cls-11" points="174.47 38.3 174.47 42.55 174.47 46.81 174.47 51.06 178.72 51.06 178.72 46.81 178.72 42.55 178.72 38.3 174.47 38.3"/>
        <rect class="cls-11" x="106.38" y="55.32" width="4.26" height="4.26"/>
        <polygon class="cls-11" points="93.62 59.57 89.36 59.57 89.36 63.83 93.62 63.83 97.87 63.83 102.13 63.83 102.13 59.57 97.87 59.57 93.62 59.57"/>
        <polygon class="cls-11" points="72.34 80.85 72.34 85.11 72.34 89.36 76.6 89.36 76.6 85.11 76.6 80.85 76.6 76.6 72.34 76.6 72.34 80.85"/>
        <polygon class="cls-11" points="174.47 89.36 174.47 93.62 174.47 97.87 174.47 102.13 174.47 106.38 174.47 110.64 174.47 114.89 174.47 119.15 174.47 123.4 174.47 127.66 174.47 131.91 178.72 131.91 178.72 127.66 178.72 123.4 178.72 119.15 178.72 114.89 178.72 110.64 178.72 106.38 178.72 102.13 178.72 97.87 178.72 93.62 178.72 89.36 178.72 85.11 174.47 85.11 174.47 89.36"/>
        <polygon class="cls-11" points="12.77 119.15 12.77 123.4 17.02 123.4 17.02 119.15 17.02 114.89 12.77 114.89 12.77 119.15"/>
        <polygon class="cls-11" points="8.51 148.94 4.26 148.94 4.26 153.19 4.26 157.45 8.51 157.45 12.77 157.45 12.77 153.19 8.51 153.19 8.51 148.94"/>
      </g>
      <g>
        <rect class="cls-41" x="102.13" y="42.55" width="4.26" height="4.26"/>
        <polygon class="cls-41" points="93.62 46.81 89.36 46.81 89.36 51.06 93.62 51.06 97.87 51.06 102.13 51.06 102.13 46.81 97.87 46.81 93.62 46.81"/>
        <polygon class="cls-41" points="110.64 51.06 114.89 51.06 114.89 46.81 110.64 46.81 106.38 46.81 106.38 51.06 110.64 51.06"/>
        <rect class="cls-41" x="21.28" y="55.32" width="4.26" height="4.26"/>
        <polygon class="cls-41" points="114.89 59.57 110.64 59.57 106.38 59.57 106.38 63.83 110.64 63.83 110.64 68.09 114.89 68.09 114.89 63.83 114.89 59.57"/>
        <rect class="cls-41" x="12.77" y="63.83" width="4.26" height="4.26"/>
        <rect class="cls-41" x="114.89" y="68.09" width="4.26" height="4.26"/>
        <polygon class="cls-41" points="17.02 97.87 17.02 93.62 17.02 89.36 12.77 89.36 12.77 85.11 8.51 85.11 8.51 89.36 8.51 93.62 12.77 93.62 12.77 97.87 12.77 102.13 12.77 106.38 12.77 110.64 12.77 114.89 17.02 114.89 17.02 110.64 17.02 106.38 21.28 106.38 21.28 102.13 17.02 102.13 17.02 97.87"/>
        <rect class="cls-41" x="12.77" y="123.4" width="4.26" height="4.26"/>
        <polygon class="cls-41" points="178.72 144.68 178.72 140.43 174.47 140.43 170.21 140.43 170.21 144.68 170.21 148.94 165.96 148.94 165.96 153.19 165.96 157.45 170.21 157.45 170.21 153.19 174.47 153.19 178.72 153.19 178.72 148.94 174.47 148.94 174.47 144.68 178.72 144.68"/>
        <polygon class="cls-41" points="12.77 144.68 12.77 148.94 12.77 153.19 17.02 153.19 21.28 153.19 21.28 148.94 21.28 144.68 17.02 144.68 12.77 144.68"/>
      </g>
      <g>
        <polygon class="cls-18" points="12.77 29.79 12.77 34.04 17.02 34.04 17.02 29.79 17.02 25.53 12.77 25.53 12.77 29.79"/>
        <rect class="cls-18" x="12.77" y="42.55" width="4.26" height="4.26"/>
        <rect class="cls-18" x="34.04" y="46.81" width="4.26" height="4.26"/>
        <rect class="cls-18" x="29.79" y="55.32" width="4.26" height="4.26"/>
        <rect class="cls-18" x="21.28" y="136.17" width="4.26" height="4.26"/>
        <rect class="cls-18" x="178.72" y="136.17" width="4.26" height="4.26"/>
        <rect class="cls-18" x="170.21" y="153.19" width="4.26" height="4.26"/>
      </g>
      <g>
        <rect class="cls-27" x="93.62" y="21.28" width="4.26" height="4.26"/>
        <rect class="cls-27" x="161.7" y="42.55" width="4.26" height="4.26"/>
        <polygon class="cls-27" points="191.49 46.81 191.49 51.06 191.49 55.32 195.74 55.32 195.74 51.06 195.74 46.81 191.49 46.81"/>
        <polygon class="cls-27" points="42.55 55.32 46.81 55.32 51.06 55.32 55.32 55.32 59.57 55.32 63.83 55.32 68.09 55.32 68.09 51.06 63.83 51.06 59.57 51.06 55.32 51.06 51.06 51.06 46.81 51.06 42.55 51.06 38.3 51.06 34.04 51.06 29.79 51.06 29.79 55.32 34.04 55.32 38.3 55.32 42.55 55.32"/>
        <polygon class="cls-27" points="148.94 51.06 144.68 51.06 140.43 51.06 136.17 51.06 131.91 51.06 131.91 55.32 136.17 55.32 140.43 55.32 144.68 55.32 148.94 55.32 153.19 55.32 157.45 55.32 157.45 51.06 153.19 51.06 148.94 51.06"/>
        <polygon class="cls-27" points="174.47 51.06 174.47 46.81 174.47 42.55 174.47 38.3 174.47 34.04 170.21 34.04 170.21 38.3 170.21 42.55 170.21 46.81 170.21 51.06 165.96 51.06 161.7 51.06 161.7 55.32 165.96 55.32 170.21 55.32 174.47 55.32 174.47 51.06"/>
        <polygon class="cls-27" points="25.53 59.57 25.53 63.83 25.53 68.09 25.53 72.34 25.53 76.6 29.79 76.6 29.79 72.34 29.79 68.09 29.79 63.83 29.79 59.57 29.79 55.32 25.53 55.32 25.53 59.57"/>
        <polygon class="cls-27" points="85.11 59.57 85.11 55.32 85.11 51.06 85.11 46.81 80.85 46.81 80.85 51.06 80.85 55.32 76.6 55.32 76.6 59.57 80.85 59.57 85.11 59.57"/>
        <polygon class="cls-27" points="123.4 68.09 123.4 72.34 123.4 76.6 127.66 76.6 127.66 72.34 127.66 68.09 127.66 63.83 127.66 59.57 123.4 59.57 119.15 59.57 119.15 63.83 123.4 63.83 123.4 68.09"/>
        <rect class="cls-27" x="131.91" y="63.83" width="4.26" height="4.26"/>
        <polygon class="cls-27" points="21.28 72.34 21.28 68.09 17.02 68.09 12.77 68.09 12.77 72.34 17.02 72.34 21.28 72.34"/>
        <polygon class="cls-27" points="191.49 68.09 187.23 68.09 182.98 68.09 182.98 72.34 187.23 72.34 191.49 72.34 191.49 68.09"/>
        <polygon class="cls-27" points="97.87 80.85 102.13 80.85 106.38 80.85 110.64 80.85 110.64 76.6 106.38 76.6 102.13 76.6 97.87 76.6 93.62 76.6 89.36 76.6 89.36 80.85 93.62 80.85 97.87 80.85"/>
        <rect class="cls-27" x="42.55" y="85.11" width="4.26" height="4.26"/>
        <polygon class="cls-27" points="110.64 89.36 110.64 93.62 110.64 97.87 110.64 102.13 114.89 102.13 114.89 97.87 114.89 93.62 114.89 89.36 114.89 85.11 114.89 80.85 110.64 80.85 110.64 85.11 110.64 89.36"/>
        <polygon class="cls-27" points="8.51 102.13 8.51 97.87 8.51 93.62 8.51 89.36 8.51 85.11 8.51 80.85 8.51 76.6 4.26 76.6 4.26 80.85 4.26 85.11 4.26 89.36 4.26 93.62 4.26 97.87 4.26 102.13 4.26 106.38 4.26 110.64 8.51 110.64 8.51 106.38 8.51 102.13"/>
        <rect class="cls-27" x="106.38" y="102.13" width="4.26" height="4.26"/>
        <rect class="cls-27" x="76.6" y="106.38" width="4.26" height="4.26"/>
        <polygon class="cls-27" points="8.51 119.15 8.51 123.4 8.51 127.66 8.51 131.91 12.77 131.91 12.77 127.66 12.77 123.4 12.77 119.15 12.77 114.89 12.77 110.64 8.51 110.64 8.51 114.89 8.51 119.15"/>
        <rect class="cls-27" x="165.96" y="131.91" width="4.26" height="4.26"/>
        <rect class="cls-27" x="161.7" y="136.17" width="4.26" height="4.26"/>
        <polygon class="cls-27" points="191.49 140.43 191.49 144.68 195.74 144.68 195.74 140.43 195.74 136.17 191.49 136.17 191.49 140.43"/>
        <polygon class="cls-27" points="123.4 144.68 119.15 144.68 114.89 144.68 110.64 144.68 106.38 144.68 102.13 144.68 97.87 144.68 93.62 144.68 89.36 144.68 85.11 144.68 80.85 144.68 76.6 144.68 72.34 144.68 68.09 144.68 63.83 144.68 59.57 144.68 55.32 144.68 51.06 144.68 46.81 144.68 42.55 144.68 38.3 144.68 38.3 148.94 42.55 148.94 46.81 148.94 51.06 148.94 55.32 148.94 59.57 148.94 63.83 148.94 68.09 148.94 72.34 148.94 76.6 148.94 80.85 148.94 85.11 148.94 89.36 148.94 93.62 148.94 97.87 148.94 102.13 148.94 106.38 148.94 110.64 148.94 114.89 148.94 119.15 148.94 123.4 148.94 127.66 148.94 131.91 148.94 131.91 144.68 127.66 144.68 123.4 144.68"/>
        <rect class="cls-27" x="182.98" y="144.68" width="4.26" height="4.26"/>
        <polygon class="cls-27" points="17.02 153.19 12.77 153.19 12.77 157.45 17.02 157.45 21.28 157.45 25.53 157.45 25.53 153.19 21.28 153.19 17.02 153.19"/>
        <polygon class="cls-27" points="178.72 153.19 174.47 153.19 174.47 157.45 178.72 157.45 182.98 157.45 187.23 157.45 187.23 153.19 182.98 153.19 178.72 153.19"/>
      </g>
      <g>
        <polygon class="cls-31" points="29.79 4.26 34.04 4.26 34.04 0 29.79 0 25.53 0 21.28 0 21.28 4.26 25.53 4.26 29.79 4.26"/>
        <polygon class="cls-31" points="17.02 8.51 17.02 4.26 12.77 4.26 12.77 8.51 12.77 12.77 17.02 12.77 17.02 8.51"/>
        <rect class="cls-31" x="29.79" y="8.51" width="4.26" height="4.26"/>
        <rect class="cls-31" x="102.13" y="8.51" width="4.26" height="4.26"/>
        <rect class="cls-31" x="8.51" y="12.77" width="4.26" height="4.26"/>
        <rect class="cls-31" x="8.51" y="21.28" width="4.26" height="4.26"/>
        <polygon class="cls-31" points="17.02 29.79 21.28 29.79 25.53 29.79 25.53 25.53 21.28 25.53 17.02 25.53 17.02 29.79"/>
        <rect class="cls-31" x="97.87" y="25.53" width="4.26" height="4.26"/>
        <rect class="cls-31" x="34.04" y="42.55" width="4.26" height="4.26"/>
        <rect class="cls-31" x="42.55" y="42.55" width="4.26" height="4.26"/>
        <rect class="cls-31" x="8.51" y="51.06" width="4.26" height="4.26"/>
        <rect class="cls-31" x="106.38" y="51.06" width="4.26" height="4.26"/>
        <rect class="cls-31" x="12.77" y="55.32" width="4.26" height="4.26"/>
        <rect class="cls-31" x="85.11" y="55.32" width="4.26" height="4.26"/>
        <rect class="cls-31" x="182.98" y="55.32" width="4.26" height="4.26"/>
        <rect class="cls-31" x="127.66" y="68.09" width="4.26" height="4.26"/>
        <polygon class="cls-31" points="8.51 76.6 8.51 72.34 4.26 72.34 4.26 68.09 4.26 63.83 4.26 59.57 4.26 55.32 0 55.32 0 59.57 0 63.83 0 68.09 0 72.34 0 76.6 4.26 76.6 8.51 76.6"/>
        <rect class="cls-31" x="153.19" y="85.11" width="4.26" height="4.26"/>
        <rect class="cls-31" x="85.11" y="97.87" width="4.26" height="4.26"/>
        <rect class="cls-31" x="157.45" y="110.64" width="4.26" height="4.26"/>
        <rect class="cls-31" x="153.19" y="119.15" width="4.26" height="4.26"/>
        <polygon class="cls-31" points="34.04 131.91 29.79 131.91 25.53 131.91 21.28 131.91 17.02 131.91 12.77 131.91 8.51 131.91 8.51 136.17 12.77 136.17 17.02 136.17 21.28 136.17 25.53 136.17 29.79 136.17 29.79 140.43 34.04 140.43 38.3 140.43 38.3 136.17 34.04 136.17 34.04 131.91"/>
        <polygon class="cls-31" points="4.26 140.43 4.26 144.68 8.51 144.68 8.51 140.43 8.51 136.17 4.26 136.17 4.26 140.43"/>
        <rect class="cls-31" x="182.98" y="140.43" width="4.26" height="4.26"/>
        <polygon class="cls-31" points="0 148.94 0 153.19 0 157.45 0 161.7 4.26 161.7 8.51 161.7 8.51 157.45 4.26 157.45 4.26 153.19 4.26 148.94 4.26 144.68 0 144.68 0 148.94"/>
        <rect class="cls-31" x="8.51" y="144.68" width="4.26" height="4.26"/>
        <rect class="cls-31" x="187.23" y="144.68" width="4.26" height="4.26"/>
        <rect class="cls-31" x="25.53" y="148.94" width="4.26" height="4.26"/>
        <polygon class="cls-31" points="63.83 157.45 63.83 161.7 68.09 161.7 72.34 161.7 72.34 157.45 68.09 157.45 63.83 157.45"/>
        <rect class="cls-31" x="93.62" y="157.45" width="4.26" height="4.26"/>
      </g>
      <g>
        <rect class="cls-40" x="29.79" y="4.26" width="4.26" height="4.26"/>
        <rect class="cls-40" x="182.98" y="12.77" width="4.26" height="4.26"/>
        <rect class="cls-40" x="182.98" y="21.28" width="4.26" height="4.26"/>
        <polygon class="cls-40" points="21.28 46.81 25.53 46.81 25.53 42.55 25.53 38.3 25.53 34.04 25.53 29.79 21.28 29.79 17.02 29.79 17.02 34.04 21.28 34.04 21.28 38.3 17.02 38.3 17.02 42.55 17.02 46.81 17.02 51.06 21.28 51.06 21.28 46.81"/>
        <rect class="cls-40" x="161.7" y="46.81" width="4.26" height="4.26"/>
        <polygon class="cls-40" points="191.49 51.06 191.49 46.81 191.49 42.55 191.49 38.3 191.49 34.04 191.49 29.79 187.23 29.79 187.23 34.04 182.98 34.04 182.98 38.3 187.23 38.3 187.23 42.55 187.23 46.81 182.98 46.81 182.98 51.06 187.23 51.06 191.49 51.06"/>
        <rect class="cls-40" x="8.51" y="59.57" width="4.26" height="4.26"/>
        <rect class="cls-40" x="21.28" y="59.57" width="4.26" height="4.26"/>
        <rect class="cls-40" x="114.89" y="59.57" width="4.26" height="4.26"/>
        <polygon class="cls-40" points="136.17 63.83 136.17 59.57 131.91 59.57 131.91 55.32 127.66 55.32 123.4 55.32 123.4 59.57 127.66 59.57 127.66 63.83 127.66 68.09 131.91 68.09 131.91 63.83 136.17 63.83"/>
        <rect class="cls-40" x="17.02" y="63.83" width="4.26" height="4.26"/>
        <polygon class="cls-40" points="191.49 63.83 187.23 63.83 182.98 63.83 178.72 63.83 178.72 68.09 182.98 68.09 187.23 68.09 191.49 68.09 191.49 72.34 195.74 72.34 195.74 68.09 195.74 63.83 191.49 63.83"/>
        <polygon class="cls-40" points="97.87 72.34 97.87 68.09 93.62 68.09 89.36 68.09 89.36 72.34 93.62 72.34 97.87 72.34"/>
        <rect class="cls-40" x="119.15" y="68.09" width="4.26" height="4.26"/>
        <polygon class="cls-40" points="17.02 76.6 21.28 76.6 25.53 76.6 25.53 72.34 21.28 72.34 17.02 72.34 12.77 72.34 8.51 72.34 8.51 76.6 12.77 76.6 17.02 76.6"/>
        <path class="cls-40" d="M38.3,76.6h29.79v-8.51h-4.26v4.26h-4.26v-8.51h-4.26v8.51h-8.51v-8.51h-12.77v8.51h-4.26v4.26h8.51ZM38.3,68.09h4.26v4.26h-4.26v-4.26Z"/>
        <polygon class="cls-40" points="170.21 72.34 165.96 72.34 165.96 68.09 165.96 63.83 161.7 63.83 161.7 68.09 161.7 72.34 157.45 72.34 157.45 68.09 153.19 68.09 153.19 72.34 148.94 72.34 144.68 72.34 144.68 68.09 140.43 68.09 140.43 72.34 136.17 72.34 136.17 68.09 131.91 68.09 131.91 72.34 131.91 76.6 136.17 76.6 140.43 76.6 144.68 76.6 148.94 76.6 153.19 76.6 157.45 76.6 161.7 76.6 165.96 76.6 170.21 76.6 170.21 72.34"/>
        <polygon class="cls-40" points="182.98 72.34 178.72 72.34 174.47 72.34 174.47 76.6 178.72 76.6 182.98 76.6 187.23 76.6 191.49 76.6 191.49 72.34 187.23 72.34 182.98 72.34"/>
        <polygon class="cls-40" points="12.77 89.36 17.02 89.36 17.02 93.62 17.02 97.87 21.28 97.87 21.28 102.13 21.28 106.38 17.02 106.38 17.02 110.64 17.02 114.89 17.02 119.15 17.02 123.4 17.02 127.66 17.02 131.91 21.28 131.91 25.53 131.91 25.53 127.66 25.53 123.4 25.53 119.15 25.53 114.89 25.53 110.64 25.53 106.38 25.53 102.13 25.53 97.87 25.53 93.62 25.53 89.36 25.53 85.11 25.53 80.85 21.28 80.85 21.28 85.11 17.02 85.11 17.02 80.85 12.77 80.85 8.51 80.85 8.51 85.11 12.77 85.11 12.77 89.36"/>
        <rect class="cls-40" x="34.04" y="85.11" width="4.26" height="4.26"/>
        <path class="cls-40" d="M178.72,89.36v42.55h8.51v-4.26h-4.26v-4.26h4.26v-12.77h4.26v-29.79h-17.02v4.26h4.26v4.26ZM187.23,106.38h-4.26v-4.26h4.26v4.26ZM187.23,85.11v4.26h-4.26v-4.26h4.26Z"/>
        <rect class="cls-40" x="153.19" y="89.36" width="4.26" height="4.26"/>
        <rect class="cls-40" x="161.7" y="89.36" width="4.26" height="4.26"/>
        <polygon class="cls-40" points="76.6 93.62 76.6 89.36 72.34 89.36 72.34 93.62 72.34 97.87 76.6 97.87 76.6 93.62"/>
        <rect class="cls-40" x="76.6" y="102.13" width="4.26" height="4.26"/>
        <polygon class="cls-40" points="85.11 110.64 89.36 110.64 89.36 106.38 85.11 106.38 80.85 106.38 80.85 110.64 85.11 110.64"/>
        <polygon class="cls-40" points="93.62 114.89 97.87 114.89 102.13 114.89 106.38 114.89 110.64 114.89 110.64 110.64 114.89 110.64 114.89 106.38 119.15 106.38 123.4 106.38 123.4 102.13 123.4 97.87 127.66 97.87 127.66 93.62 127.66 89.36 127.66 85.11 127.66 80.85 127.66 76.6 123.4 76.6 123.4 80.85 123.4 85.11 123.4 89.36 123.4 93.62 119.15 93.62 119.15 97.87 119.15 102.13 114.89 102.13 110.64 102.13 110.64 106.38 106.38 106.38 102.13 106.38 102.13 110.64 97.87 110.64 93.62 110.64 89.36 110.64 89.36 114.89 93.62 114.89"/>
        <polygon class="cls-40" points="42.55 119.15 42.55 123.4 46.81 123.4 46.81 119.15 46.81 114.89 42.55 114.89 42.55 119.15"/>
        <rect class="cls-40" x="34.04" y="119.15" width="4.26" height="4.26"/>
        <rect class="cls-40" x="161.7" y="119.15" width="4.26" height="4.26"/>
        <rect class="cls-40" x="187.23" y="140.43" width="4.26" height="4.26"/>
        <polygon class="cls-40" points="29.79 148.94 29.79 153.19 25.53 153.19 25.53 157.45 21.28 157.45 17.02 157.45 12.77 157.45 8.51 157.45 8.51 161.7 12.77 161.7 17.02 161.7 21.28 161.7 25.53 161.7 29.79 161.7 29.79 157.45 34.04 157.45 34.04 153.19 34.04 148.94 34.04 144.68 29.79 144.68 29.79 148.94"/>
        <polygon class="cls-40" points="191.49 148.94 191.49 153.19 187.23 153.19 187.23 157.45 182.98 157.45 178.72 157.45 174.47 157.45 170.21 157.45 170.21 161.7 174.47 161.7 178.72 161.7 182.98 161.7 187.23 161.7 191.49 161.7 191.49 157.45 195.74 157.45 195.74 153.19 195.74 148.94 195.74 144.68 191.49 144.68 191.49 148.94"/>
        <rect class="cls-40" x="21.28" y="148.94" width="4.26" height="4.26"/>
        <rect class="cls-40" x="182.98" y="148.94" width="4.26" height="4.26"/>
        <polygon class="cls-40" points="153.19 153.19 148.94 153.19 144.68 153.19 140.43 153.19 136.17 153.19 131.91 153.19 127.66 153.19 123.4 153.19 119.15 153.19 114.89 153.19 110.64 153.19 106.38 153.19 102.13 153.19 97.87 153.19 93.62 153.19 89.36 153.19 85.11 153.19 80.85 153.19 76.6 153.19 72.34 153.19 68.09 153.19 63.83 153.19 59.57 153.19 55.32 153.19 51.06 153.19 46.81 153.19 42.55 153.19 42.55 148.94 38.3 148.94 38.3 153.19 38.3 157.45 38.3 161.7 42.55 161.7 46.81 161.7 51.06 161.7 55.32 161.7 59.57 161.7 63.83 161.7 63.83 157.45 68.09 157.45 72.34 157.45 72.34 161.7 76.6 161.7 80.85 161.7 85.11 161.7 89.36 161.7 93.62 161.7 93.62 157.45 97.87 157.45 97.87 161.7 102.13 161.7 106.38 161.7 110.64 161.7 114.89 161.7 119.15 161.7 123.4 161.7 127.66 161.7 131.91 161.7 136.17 161.7 140.43 161.7 144.68 161.7 148.94 161.7 153.19 161.7 157.45 161.7 161.7 161.7 161.7 157.45 161.7 153.19 157.45 153.19 153.19 153.19"/>
      </g>
      <g>
        <rect class="cls-17" x="17.02" width="4.26" height="4.26"/>
        <rect class="cls-17" x="93.62" y="8.51" width="4.26" height="4.26"/>
        <rect class="cls-17" x="8.51" y="17.02" width="4.26" height="4.26"/>
        <polygon class="cls-17" points="4.26 29.79 4.26 34.04 4.26 38.3 4.26 42.55 4.26 46.81 4.26 51.06 4.26 55.32 8.51 55.32 8.51 51.06 8.51 46.81 8.51 42.55 8.51 38.3 8.51 34.04 8.51 29.79 8.51 25.53 4.26 25.53 4.26 29.79"/>
        <rect class="cls-17" x="93.62" y="25.53" width="4.26" height="4.26"/>
        <polygon class="cls-17" points="85.11 29.79 80.85 29.79 76.6 29.79 72.34 29.79 68.09 29.79 63.83 29.79 59.57 29.79 55.32 29.79 51.06 29.79 46.81 29.79 46.81 34.04 51.06 34.04 55.32 34.04 59.57 34.04 63.83 34.04 68.09 34.04 72.34 34.04 76.6 34.04 80.85 34.04 85.11 34.04 85.11 29.79"/>
        <rect class="cls-17" x="42.55" y="46.81" width="4.26" height="4.26"/>
        <polygon class="cls-17" points="17.02 51.06 12.77 51.06 12.77 55.32 17.02 55.32 21.28 55.32 25.53 55.32 25.53 51.06 21.28 51.06 17.02 51.06"/>
        <polygon class="cls-17" points="72.34 51.06 68.09 51.06 68.09 55.32 72.34 55.32 76.6 55.32 80.85 55.32 80.85 51.06 76.6 51.06 72.34 51.06"/>
        <polygon class="cls-17" points="97.87 51.06 93.62 51.06 89.36 51.06 89.36 55.32 93.62 55.32 97.87 55.32 102.13 55.32 106.38 55.32 106.38 51.06 102.13 51.06 97.87 51.06"/>
        <polygon class="cls-17" points="182.98 55.32 187.23 55.32 191.49 55.32 191.49 51.06 187.23 51.06 182.98 51.06 178.72 51.06 174.47 51.06 174.47 55.32 178.72 55.32 182.98 55.32"/>
        <rect class="cls-17" x="76.6" y="59.57" width="4.26" height="4.26"/>
        <polygon class="cls-17" points="72.34 68.09 72.34 72.34 72.34 76.6 76.6 76.6 76.6 72.34 76.6 68.09 76.6 63.83 72.34 63.83 72.34 68.09"/>
        <rect class="cls-17" x="153.19" y="63.83" width="4.26" height="4.26"/>
        <polygon class="cls-17" points="174.47 72.34 174.47 68.09 174.47 63.83 174.47 59.57 174.47 55.32 170.21 55.32 170.21 59.57 170.21 63.83 170.21 68.09 170.21 72.34 170.21 76.6 174.47 76.6 174.47 72.34"/>
        <polygon class="cls-17" points="85.11 85.11 85.11 89.36 85.11 93.62 85.11 97.87 89.36 97.87 89.36 93.62 89.36 89.36 89.36 85.11 89.36 80.85 85.11 80.85 85.11 85.11"/>
        <polygon class="cls-17" points="187.23 131.91 182.98 131.91 178.72 131.91 174.47 131.91 170.21 131.91 170.21 136.17 174.47 136.17 178.72 136.17 182.98 136.17 187.23 136.17 187.23 131.91"/>
        <rect class="cls-17" x="165.96" y="136.17" width="4.26" height="4.26"/>
        <polygon class="cls-17" points="161.7 144.68 161.7 148.94 161.7 153.19 161.7 157.45 161.7 161.7 165.96 161.7 170.21 161.7 170.21 157.45 165.96 157.45 165.96 153.19 165.96 148.94 165.96 144.68 165.96 140.43 161.7 140.43 161.7 144.68"/>
        <rect class="cls-17" x="187.23" y="148.94" width="4.26" height="4.26"/>
        <rect class="cls-17" x="191.49" y="157.45" width="4.26" height="4.26"/>
      </g>
      <g>
        <polygon class="cls-39" points="174.47 4.26 178.72 4.26 182.98 4.26 182.98 0 178.72 0 174.47 0 170.21 0 165.96 0 165.96 4.26 170.21 4.26 174.47 4.26"/>
        <polygon class="cls-39" points="182.98 12.77 187.23 12.77 187.23 8.51 187.23 4.26 182.98 4.26 182.98 8.51 182.98 12.77"/>
        <polygon class="cls-39" points="165.96 12.77 165.96 8.51 165.96 4.26 161.7 4.26 161.7 8.51 161.7 12.77 161.7 17.02 165.96 17.02 165.96 12.77"/>
        <polygon class="cls-39" points="170.21 21.28 170.21 25.53 170.21 29.79 170.21 34.04 174.47 34.04 174.47 29.79 174.47 25.53 174.47 21.28 174.47 17.02 170.21 17.02 165.96 17.02 165.96 21.28 170.21 21.28"/>
        <polygon class="cls-39" points="187.23 21.28 187.23 25.53 191.49 25.53 191.49 21.28 191.49 17.02 191.49 12.77 187.23 12.77 187.23 17.02 187.23 21.28"/>
        <polygon class="cls-39" points="191.49 34.04 191.49 38.3 191.49 42.55 191.49 46.81 195.74 46.81 195.74 42.55 195.74 38.3 195.74 34.04 195.74 29.79 195.74 25.53 191.49 25.53 191.49 29.79 191.49 34.04"/>
        <path class="cls-39" d="M89.36,42.55h21.28v4.26h4.26V4.26h-29.79v42.55h4.26v-4.26ZM89.36,34.04V8.51h21.28v29.79h-21.28v-4.26Z"/>
        <polygon class="cls-39" points="29.79 51.06 29.79 46.81 29.79 42.55 29.79 38.3 29.79 34.04 34.04 34.04 34.04 29.79 29.79 29.79 29.79 25.53 29.79 21.28 34.04 21.28 34.04 17.02 38.3 17.02 38.3 12.77 38.3 8.51 38.3 4.26 34.04 4.26 34.04 8.51 34.04 12.77 29.79 12.77 29.79 17.02 25.53 17.02 25.53 21.28 25.53 25.53 25.53 29.79 25.53 34.04 25.53 38.3 25.53 42.55 25.53 46.81 25.53 51.06 25.53 55.32 29.79 55.32 29.79 51.06"/>
        <polygon class="cls-39" points="114.89 55.32 114.89 59.57 119.15 59.57 123.4 59.57 123.4 55.32 127.66 55.32 131.91 55.32 131.91 51.06 127.66 51.06 123.4 51.06 119.15 51.06 119.15 46.81 114.89 46.81 114.89 51.06 114.89 55.32"/>
        <rect class="cls-39" x="157.45" y="51.06" width="4.26" height="4.26"/>
        <path class="cls-39" d="M195.74,55.32v17.02h-4.26v4.26h-59.57v-4.26h-4.26v25.53h42.55v25.53H29.79v-25.53h42.55v-25.53h-4.26v4.26H8.51v4.26h8.51v4.26h4.26v-4.26h4.26v51.06h4.26v-4.26h140.43v4.26h4.26v-51.06h17.02v29.79h4.26v-34.04h4.26v-21.28h-4.26ZM29.79,89.36v-8.51h38.3v12.77H29.79v-4.26ZM170.21,85.11v8.51h-38.3v-12.77h25.53v4.26h8.51v-4.26h4.26v4.26Z"/>
        <rect class="cls-39" x="17.02" y="59.57" width="4.26" height="4.26"/>
        <rect class="cls-39" x="187.23" y="59.57" width="4.26" height="4.26"/>
        <rect class="cls-39" x="119.15" y="63.83" width="4.26" height="4.26"/>
        <rect class="cls-35" x="97.87" y="97.87" width="4.26" height="4.26"/>
        <polygon class="cls-39" points="72.34 106.38 76.6 106.38 76.6 102.13 76.6 97.87 72.34 97.87 72.34 102.13 72.34 106.38"/>
        <polygon class="cls-39" points="89.36 102.13 89.36 106.38 93.62 106.38 97.87 106.38 97.87 102.13 93.62 102.13 89.36 102.13"/>
        <rect class="cls-39" x="102.13" y="102.13" width="4.26" height="4.26"/>
        <polygon class="cls-39" points="187.23 114.89 187.23 119.15 187.23 123.4 187.23 127.66 187.23 131.91 187.23 136.17 191.49 136.17 191.49 131.91 191.49 127.66 191.49 123.4 191.49 119.15 191.49 114.89 191.49 110.64 187.23 110.64 187.23 114.89"/>
        <polygon class="cls-39" points="140.43 148.94 144.68 148.94 148.94 148.94 153.19 148.94 157.45 148.94 161.7 148.94 161.7 144.68 157.45 144.68 153.19 144.68 148.94 144.68 144.68 144.68 140.43 144.68 136.17 144.68 131.91 144.68 131.91 148.94 136.17 148.94 140.43 148.94"/>
        <polygon class="cls-39" points="195.74 148.94 195.74 153.19 195.74 157.45 195.74 161.7 200 161.7 200 157.45 200 153.19 200 148.94 200 144.68 195.74 144.68 195.74 148.94"/>
        <polygon class="cls-39" points="187.23 161.7 182.98 161.7 178.72 161.7 174.47 161.7 170.21 161.7 165.96 161.7 161.7 161.7 157.45 161.7 153.19 161.7 148.94 161.7 144.68 161.7 140.43 161.7 136.17 161.7 131.91 161.7 127.66 161.7 123.4 161.7 119.15 161.7 114.89 161.7 110.64 161.7 106.38 161.7 102.13 161.7 97.87 161.7 93.62 161.7 89.36 161.7 85.11 161.7 80.85 161.7 76.6 161.7 72.34 161.7 68.09 161.7 63.83 161.7 59.57 161.7 55.32 161.7 51.06 161.7 46.81 161.7 42.55 161.7 38.3 161.7 38.3 157.45 38.3 153.19 38.3 148.94 38.3 144.68 38.3 140.43 34.04 140.43 34.04 144.68 34.04 148.94 34.04 153.19 34.04 157.45 29.79 157.45 29.79 161.7 25.53 161.7 21.28 161.7 17.02 161.7 12.77 161.7 8.51 161.7 4.26 161.7 4.26 165.96 8.51 165.96 12.77 165.96 17.02 165.96 21.28 165.96 25.53 165.96 29.79 165.96 34.04 165.96 38.3 165.96 42.55 165.96 46.81 165.96 51.06 165.96 55.32 165.96 59.57 165.96 63.83 165.96 68.09 165.96 72.34 165.96 76.6 165.96 80.85 165.96 85.11 165.96 89.36 165.96 93.62 165.96 97.87 165.96 102.13 165.96 106.38 165.96 110.64 165.96 114.89 165.96 119.15 165.96 123.4 165.96 127.66 165.96 131.91 165.96 136.17 165.96 140.43 165.96 144.68 165.96 148.94 165.96 153.19 165.96 157.45 165.96 161.7 165.96 165.96 165.96 170.21 165.96 174.47 165.96 178.72 165.96 182.98 165.96 187.23 165.96 191.49 165.96 195.74 165.96 195.74 161.7 191.49 161.7 187.23 161.7"/>
      </g>
      <g>
        <rect class="cls-3" x="25.53" y="8.51" width="4.26" height="4.26"/>
        <rect class="cls-3" x="170.21" y="8.51" width="4.26" height="4.26"/>
        <rect class="cls-3" x="102.13" y="25.53" width="4.26" height="4.26"/>
        <rect class="cls-3" x="93.62" y="29.79" width="4.26" height="4.26"/>
        <rect class="cls-3" x="106.38" y="42.55" width="4.26" height="4.26"/>
        <polygon class="cls-3" points="68.09 59.57 63.83 59.57 63.83 63.83 68.09 63.83 68.09 68.09 68.09 72.34 72.34 72.34 72.34 68.09 72.34 63.83 76.6 63.83 76.6 59.57 72.34 59.57 68.09 59.57"/>
        <rect class="cls-3" x="102.13" y="59.57" width="4.26" height="4.26"/>
        <polygon class="cls-3" points="161.7 59.57 157.45 59.57 153.19 59.57 148.94 59.57 144.68 59.57 140.43 59.57 136.17 59.57 136.17 63.83 140.43 63.83 144.68 63.83 144.68 68.09 144.68 72.34 148.94 72.34 153.19 72.34 153.19 68.09 153.19 63.83 157.45 63.83 161.7 63.83 165.96 63.83 165.96 68.09 165.96 72.34 170.21 72.34 170.21 68.09 170.21 63.83 170.21 59.57 165.96 59.57 161.7 59.57"/>
        <rect class="cls-3" x="136.17" y="68.09" width="4.26" height="4.26"/>
        <rect class="cls-3" x="157.45" y="68.09" width="4.26" height="4.26"/>
        <polygon class="cls-3" points="93.62 106.38 89.36 106.38 89.36 110.64 93.62 110.64 97.87 110.64 102.13 110.64 102.13 106.38 97.87 106.38 93.62 106.38"/>
        <polygon class="cls-3" points="29.79 136.17 25.53 136.17 25.53 140.43 21.28 140.43 21.28 144.68 25.53 144.68 25.53 148.94 29.79 148.94 29.79 144.68 34.04 144.68 34.04 140.43 29.79 140.43 29.79 136.17"/>
      </g>
    </g>
  </g>
</svg>