<?xml version="1.0" encoding="UTF-8"?>
<svg id="arme-longue-legere-2mains-epéelongue" xmlns="http://www.w3.org/2000/svg" width="96" height="96" viewBox="0 0 96 96">
  <g id="arme-longue-legere-2mains-épéelongue">
    <rect x="53" y="50.5" width="1" height="1" fill="#0a0503"/>
    <rect x="54" y="50.5" width="1" height="1" fill="#010101"/>
    <rect x="55" y="50.5" width="1" height="1" fill="#020102"/>
    <rect x="53" y="51.5" width="1" height="1" fill="#050605"/>
    <rect x="54" y="51.5" width="1" height="1" fill="#f6e7aa"/>
    <rect x="55" y="51.5" width="1" height="1" fill="#98660c"/>
    <rect x="54" y="52.5" width="1" height="1" fill="#070605"/>
    <rect x="55" y="52.5" width="1" height="1" fill="#643e05"/>
    <rect x="54" y="53.5" width="1" height="1" fill="#040503"/>
    <rect x="55" y="53.5" width="1" height="1" fill="#965a00"/>
    <rect x="54" y="54.5" width="1" height="1" fill="#030301"/>
    <rect x="55" y="54.5" width="1" height="1" fill="#864e00"/>
    <rect x="54" y="55.5" width="1" height="1" fill="#010101"/>
    <rect x="56" y="50.5" width="1" height="3" fill="#070605"/>
    <rect x="56" y="53.5" width="1" height="1" fill="#040503"/>
    <rect x="56" y="54.5" width="1" height="1" fill="#030301"/>
    <rect x="56" y="55.5" width="1" height="2" fill="#010101"/>
    <rect x="56" y="60.5" width="1" height="3" fill="#070605"/>
    <rect x="56" y="63.5" width="1" height="1" fill="#040503"/>
    <rect x="56" y="64.5" width="1" height="1" fill="#030301"/>
    <rect x="56" y="65.5" width="1" height="2" fill="#010101"/>
    <rect x="55" y="55.5" width="1" height="1" fill="#a06200"/>
    <rect x="10" y="56.5" width="44" height="1" fill="#26292d"/>
    <rect x="54" y="56.5" width="1" height="1" fill="#080808"/>
    <rect x="55" y="56.5" width="1" height="1" fill="#995d05"/>
    <rect x="71" y="56.5" width="1" height="1" fill="#131710"/>
    <rect x="72" y="55.5" width="2" height="1" fill="#0d0b07"/>
    <rect x="7" y="59.5" width="3" height="1" fill="#0b0a0b"/>
    <rect x="7" y="57.5" width="3" height="1" fill="#0b0a0b"/>
    <rect x="34" y="57.5" width="1" height="1" fill="#e4e5e5"/>
    <rect x="35" y="57.5" width="3" height="1" fill="#d9d9da"/>
    <rect x="14" y="57.5" width="20" height="1" fill="#e3e3e3"/>
    <rect x="10" y="57.5" width="4" height="1" fill="#fff"/>
    <rect x="38" y="57.5" width="6" height="1" fill="#d5d5d7"/>
    <rect x="44" y="57.5" width="6" height="1" fill="#ccced1"/>
    <rect x="50" y="57.5" width="4" height="1" fill="#d5d7d8"/>
    <rect x="34" y="59.5" width="1" height="1" fill="#7a838c"/>
    <rect x="35" y="59.5" width="3" height="1" fill="#91979d"/>
    <rect x="14" y="59.5" width="20" height="1" fill="#868d94"/>
    <rect x="10" y="59.5" width="4" height="1" fill="#8e949b"/>
    <rect x="38" y="59.5" width="6" height="1" fill="#7a838c"/>
    <rect x="44" y="59.5" width="6" height="1" fill="#7a838c"/>
    <rect x="50" y="59.5" width="4" height="1" fill="#7a838c"/>
    <rect x="54" y="57.5" width="1" height="1" fill="#5c451d"/>
    <rect x="55" y="57.5" width="1" height="1" fill="#a66e0b"/>
    <rect x="55" y="63.5" width="1" height="1" fill="#a66e0b"/>
    <rect x="56" y="57.5" width="1" height="1" fill="#e0af2e"/>
    <rect x="57" y="57.5" width="1" height="1" fill="#130a09"/>
    <rect x="58" y="57.5" width="1" height="1" fill="#643a30"/>
    <rect x="59" y="57.5" width="2" height="1" fill="#59352d"/>
    <rect x="67" y="57.5" width="1" height="1" fill="#190e0a"/>
    <rect x="68" y="57.5" width="1" height="1" fill="#180f0b"/>
    <rect x="69" y="57.5" width="1" height="1" fill="#160d0c"/>
    <rect x="70" y="57.5" width="1" height="1"/>
    <rect x="71" y="57.5" width="1" height="1" fill="#d4a228"/>
    <rect x="72" y="57.5" width="1" height="1" fill="#9e670c"/>
    <rect x="72" y="58.5" width="1" height="1" fill="#efcb44"/>
    <rect x="73" y="58.5" width="1" height="1" fill="#edb623"/>
    <rect x="74" y="57.5" width="1" height="1" fill="#d59d1a"/>
    <rect x="72" y="56.5" width="2" height="1" fill="#e7b62d"/>
    <rect x="73" y="57.5" width="1" height="1" fill="#b97f11"/>
    <rect x="6" y="58.5" width="1" height="1" fill="#0a0a0a"/>
    <rect x="7" y="58.5" width="1" height="1" fill="#bdbfc2"/>
    <rect x="8" y="58.5" width="1" height="1" fill="#b2b6b9"/>
    <rect x="9" y="58.5" width="1" height="1" fill="#899097"/>
    <rect x="10" y="58.5" width="1" height="1" fill="#80888f"/>
    <rect x="11" y="58.5" width="1" height="1" fill="#888f97"/>
    <rect x="12" y="58.5" width="1" height="1" fill="#70777e"/>
    <rect x="13" y="58.5" width="1" height="1" fill="#767c84"/>
    <rect x="14" y="58.5" width="1" height="1" fill="#646a71"/>
    <rect x="15" y="58.5" width="1" height="1" fill="#6d7379"/>
    <rect x="16" y="58.5" width="1" height="1" fill="#666d74"/>
    <rect x="17" y="58.5" width="1" height="1" fill="#747b83"/>
    <rect x="18" y="58.5" width="1" height="1" fill="#5a5f68"/>
    <rect x="19" y="58.5" width="1" height="1" fill="#585e65"/>
    <rect x="20" y="58.5" width="1" height="1" fill="#575c63"/>
    <rect x="21" y="58.5" width="1" height="1" fill="#565a61"/>
    <rect x="22" y="58.5" width="1" height="1" fill="#575c63"/>
    <rect x="23" y="58.5" width="1" height="1" fill="#61676e"/>
    <rect x="24" y="58.5" width="1" height="1" fill="#5f656c"/>
    <rect x="25" y="58.5" width="1" height="1" fill="#53575e"/>
    <rect x="26" y="58.5" width="1" height="1" fill="#575c63"/>
    <rect x="27" y="58.5" width="1" height="1" fill="#52585c"/>
    <rect x="28" y="58.5" width="1" height="1" fill="#555a61"/>
    <rect x="29" y="58.5" width="2" height="1" fill="#52575f"/>
    <rect x="31" y="58.5" width="1" height="1" fill="#5a6067"/>
    <rect x="32" y="58.5" width="1" height="1" fill="#5e646b"/>
    <rect x="33" y="58.5" width="1" height="1" fill="#53575e"/>
    <rect x="34" y="58.5" width="1" height="1" fill="#545a61"/>
    <rect x="35" y="58.5" width="1" height="1" fill="#52565c"/>
    <rect x="36" y="58.5" width="1" height="1" fill="#54575d"/>
    <rect x="37" y="58.5" width="1" height="1" fill="#4f5259"/>
    <rect x="38" y="58.5" width="1" height="1" fill="#5a5d63"/>
    <rect x="39" y="58.5" width="1" height="1" fill="#4f5157"/>
    <rect x="40" y="58.5" width="1" height="1" fill="#575960"/>
    <rect x="41" y="58.5" width="1" height="1" fill="#51545c"/>
    <rect x="42" y="58.5" width="1" height="1" fill="#52565d"/>
    <rect x="43" y="58.5" width="1" height="1" fill="#54585e"/>
    <rect x="44" y="58.5" width="1" height="1" fill="#4f525a"/>
    <rect x="45" y="58.5" width="1" height="1" fill="#585a61"/>
    <rect x="46" y="58.5" width="1" height="1" fill="#4e5056"/>
    <rect x="47" y="58.5" width="1" height="1" fill="#4e5158"/>
    <rect x="48" y="58.5" width="1" height="1" fill="#585d65"/>
    <rect x="49" y="58.5" width="1" height="1" fill="#54555b"/>
    <rect x="50" y="58.5" width="1" height="1" fill="#515358"/>
    <rect x="51" y="58.5" width="1" height="1" fill="#4b4e54"/>
    <rect x="52" y="58.5" width="1" height="1" fill="#55565d"/>
    <rect x="53" y="58.5" width="1" height="1" fill="#464951"/>
    <rect x="54" y="58.5" width="1" height="1" fill="#0a0906"/>
    <rect x="55" y="58.5" width="1" height="1" fill="#895710"/>
    <rect x="56" y="58.5" width="1" height="1" fill="#b77e15"/>
    <rect x="57" y="58.5" width="1" height="1" fill="#0f0908"/>
    <rect x="58" y="58.5" width="1" height="1" fill="#291c18"/>
    <rect x="59" y="58.5" width="2" height="1" fill="#31211b"/>
    <rect x="67" y="58.5" width="1" height="1" fill="#40271f"/>
    <rect x="68" y="58.5" width="1" height="1" fill="#291c17"/>
    <rect x="69" y="58.5" width="1" height="1" fill="#201814"/>
    <rect x="70" y="58.5" width="1" height="1" fill="#020100"/>
    <rect x="71" y="58.5" width="1" height="1" fill="#8f5d10"/>
    <rect x="72" y="59.5" width="2" height="1" fill="#b67a16"/>
    <rect x="74" y="58.5" width="1" height="2" fill="#ab700c"/>
    <rect x="10" y="60.5" width="1" height="1" fill="#0e1011"/>
    <rect x="11" y="60.5" width="1" height="1" fill="#0b0c0f"/>
    <rect x="12" y="60.5" width="1" height="1" fill="#0f1314"/>
    <rect x="13" y="60.5" width="1" height="1" fill="#0e1012"/>
    <rect x="14" y="60.5" width="1" height="1" fill="#141517"/>
    <rect x="15" y="60.5" width="1" height="1" fill="#090c0d"/>
    <rect x="16" y="60.5" width="1" height="1" fill="#141618"/>
    <rect x="17" y="60.5" width="1" height="1" fill="#010305"/>
    <rect x="18" y="60.5" width="1" height="1" fill="#0a0d0f"/>
    <rect x="19" y="60.5" width="1" height="1" fill="#0d0f11"/>
    <rect x="20" y="60.5" width="1" height="1" fill="#07090c"/>
    <rect x="21" y="60.5" width="1" height="1" fill="#0c0e10"/>
    <rect x="22" y="60.5" width="1" height="1" fill="#08090a"/>
    <rect x="23" y="60.5" width="1" height="1" fill="#050709"/>
    <rect x="24" y="60.5" width="1" height="1" fill="#040809"/>
    <rect x="25" y="60.5" width="1" height="1" fill="#101012"/>
    <rect x="26" y="60.5" width="1" height="1" fill="#060809"/>
    <rect x="27" y="60.5" width="1" height="1" fill="#08080a"/>
    <rect x="28" y="60.5" width="1" height="1" fill="#090b0e"/>
    <rect x="29" y="60.5" width="1" height="1" fill="#0d1010"/>
    <rect x="30" y="60.5" width="1" height="1" fill="#090b0c"/>
    <rect x="31" y="60.5" width="1" height="1" fill="#080a0b"/>
    <rect x="32" y="60.5" width="1" height="1" fill="#0b0c0e"/>
    <rect x="33" y="60.5" width="1" height="1" fill="#0f1113"/>
    <rect x="34" y="60.5" width="1" height="1" fill="#080b0c"/>
    <rect x="35" y="60.5" width="1" height="1" fill="#101112"/>
    <rect x="36" y="60.5" width="1" height="1" fill="#040709"/>
    <rect x="37" y="60.5" width="1" height="1" fill="#111213"/>
    <rect x="38" y="60.5" width="1" height="1" fill="#070a0b"/>
    <rect x="39" y="60.5" width="1" height="1" fill="#0d0e11"/>
    <rect x="40" y="60.5" width="1" height="1" fill="#05080b"/>
    <rect x="41" y="60.5" width="1" height="1" fill="#050508"/>
    <rect x="42" y="60.5" width="1" height="1" fill="#0b0d0f"/>
    <rect x="43" y="60.5" width="1" height="1" fill="#07090b"/>
    <rect x="44" y="60.5" width="1" height="1" fill="#0b0e10"/>
    <rect x="45" y="60.5" width="1" height="1" fill="#05080a"/>
    <rect x="46" y="60.5" width="1" height="1" fill="#0e1011"/>
    <rect x="47" y="60.5" width="1" height="1" fill="#0e1214"/>
    <rect x="48" y="60.5" width="1" height="1" fill="#090b0c"/>
    <rect x="49" y="60.5" width="1" height="1" fill="#0c0e0f"/>
    <rect x="50" y="60.5" width="1" height="1" fill="#070709"/>
    <rect x="51" y="60.5" width="1" height="1" fill="#0d0f11"/>
    <rect x="52" y="60.5" width="1" height="1" fill="#080b0b"/>
    <rect x="53" y="60.5" width="1" height="1" fill="#0f1111"/>
    <rect x="54" y="59.5" width="1" height="1" fill="#030302"/>
    <rect x="55" y="59.5" width="1" height="1" fill="#623c08"/>
    <rect x="56" y="59.5" width="1" height="1" fill="#0b0501"/>
    <rect x="57" y="59.5" width="1" height="1"/>
    <rect x="58" y="59.5" width="1" height="1" fill="#090803"/>
    <rect x="59" y="59.5" width="1" height="1"/>
    <rect x="60" y="59.5" width="1" height="1" fill="#040302"/>
    <rect x="67" y="59.5" width="1" height="1" fill="#010100"/>
    <rect x="68" y="59.5" width="1" height="1" fill="#070606"/>
    <rect x="69" y="59.5" width="1" height="1" fill="#040404"/>
    <rect x="70" y="59.5" width="1" height="1" fill="#060605"/>
    <rect x="71" y="59.5" width="1" height="1" fill="#98681a"/>
    <rect x="72" y="60.5" width="2" height="1" fill="#a66c11"/>
    <rect x="74" y="60.5" width="1" height="1" fill="#080707"/>
    <rect x="75" y="57.4" width="1" height="3.1" fill="#080707"/>
    <rect x="74" y="56.5" width="1" height="1" fill="#080707"/>
    <rect x="54" y="60.5" width="1" height="1" fill="#010101"/>
    <rect x="55" y="60.5" width="1" height="1" fill="#7a4f06"/>
    <rect x="71" y="60.5" width="1" height="1" fill="#0d0b07"/>
    <rect x="72" y="61.5" width="2" height="1" fill="#0d0b07"/>
    <rect x="54" y="61.5" width="1" height="1" fill="#020202"/>
    <rect x="55" y="61.5" width="1" height="1" fill="#774d08"/>
    <rect x="54" y="62.5" width="1" height="2" fill="#020100"/>
    <rect x="55" y="62.5" width="1" height="1" fill="#815309"/>
    <rect x="54" y="64.5" width="1" height="1" fill="#030302"/>
    <rect x="53" y="65.5" width="1" height="2" fill="#030302"/>
    <rect x="55" y="64.5" width="1" height="1" fill="#68440a"/>
    <rect x="54" y="65.5" width="1" height="1" fill="#fbf9d1"/>
    <rect x="55" y="65.5" width="1" height="1" fill="#97610e"/>
    <rect x="54" y="66.5" width="2" height="1"/>
  </g>
</svg>